<svg width="160" height="108" viewBox="0 0 160 108" fill="none" xmlns="http://www.w3.org/2000/svg">
<path d="M148 30.54H12C5.37258 30.54 0 35.9126 0 42.54V96C0 102.627 5.37258 108 12 108H148C154.627 108 160 102.627 160 96V42.54C160 35.9126 154.627 30.54 148 30.54Z" fill="#CEECFE"/>
<path d="M107.905 61.936L80.357 49.936L69.657 53.182L88.057 70.497L107.905 61.936Z" fill="#F9ACC0"/>
<path d="M16.2699 67.611L15.6809 88.292L22.2809 85.892L20.2379 107.531L78.5549 107.771L74.5869 75.066L90.0979 70.258L81.6809 51.258C81.6809 51.258 59.7129 53.242 46.2099 56.428C39.7943 58.0385 33.5208 60.1699 27.4519 62.801C20.2379 65.807 16.2699 67.611 16.2699 67.611Z" fill="#3D5CFF"/>
<path d="M35.629 25.166C31.782 28.052 31.06 34.425 29.496 38.032C27.932 41.639 27.212 42.602 25.769 44.044C24.7929 44.9521 23.5871 45.5759 22.282 45.848C22.282 45.848 27.452 54.385 41.761 53.664C56.07 52.943 62.803 46.931 65.328 44.526C66.9415 42.8917 68.1733 40.9206 68.935 38.754C68.935 38.754 62.081 38.393 59.196 32.622C56.311 26.851 52.943 23.002 48.735 23.002C44.527 23.002 42.723 24.685 42.723 24.685C41.646 23.9917 40.3742 23.6641 39.0963 23.7508C37.8184 23.8374 36.6025 24.3337 35.629 25.166Z" fill="#1F1F39"/>
<path d="M16.0059 88.184L22.2829 85.884L21.9339 89.651L23.2439 78.661L16.0059 88.184Z" fill="#224BF4"/>
<path d="M75.321 81.079L74.588 75.067L78.051 73.997L72.988 65.267L75.321 81.079Z" fill="#224BF4"/>
<path d="M61.457 67.466C61.282 67.8414 60.9853 68.1465 60.615 68.332C60.2235 68.5402 59.886 68.8367 59.629 69.198C59.5092 69.3914 59.432 69.6082 59.4026 69.8338C59.3732 70.0594 59.3922 70.2887 59.4585 70.5064C59.5247 70.7241 59.6366 70.9251 59.7868 71.0961C59.9369 71.2671 60.1217 71.4041 60.329 71.498C60.557 71.606 60.75 71.27 60.521 71.161C60.3362 71.0815 60.1739 70.9579 60.0482 70.801C59.9224 70.644 59.8372 70.4586 59.8 70.261C59.7616 70.0474 59.7788 69.8275 59.8499 69.6224C59.921 69.4173 60.0436 69.234 60.206 69.09C60.795 68.537 61.769 68.248 61.865 67.334C61.8621 67.0851 61.8084 66.8395 61.7071 66.6121C61.6058 66.3848 61.4591 66.1805 61.276 66.012C61.132 65.832 60.855 66.112 61.011 66.301C61.276 66.625 61.601 67.022 61.457 67.466Z" fill="white"/>
<path d="M28.4149 105.739C28.4208 105.886 28.3934 106.033 28.3347 106.169C28.276 106.304 28.1875 106.425 28.0759 106.521C27.6189 106.978 26.9939 107.194 26.6089 107.721C26.4649 107.921 26.8009 108.121 26.9459 107.913C27.1844 107.641 27.4695 107.413 27.7879 107.24C28.0908 107.059 28.3579 106.823 28.5759 106.545C28.6779 106.411 28.7501 106.257 28.7873 106.094C28.8246 105.93 28.8261 105.76 28.7919 105.595C28.6889 105.23 28.4924 104.899 28.2219 104.633C28.0659 104.433 27.7889 104.705 27.9449 104.898C28.1802 105.126 28.3436 105.419 28.4149 105.739Z" fill="white"/>
<path d="M67.9979 75.499C67.7721 75.9033 67.4337 76.2333 67.0239 76.449C66.6276 76.6502 66.2885 76.948 66.0379 77.315C65.9146 77.544 65.8551 77.8019 65.8657 78.0617C65.8763 78.3215 65.9564 78.5738 66.0979 78.792C66.4586 79.3085 66.9477 79.7221 67.5169 79.992C67.5615 80.0158 67.6136 80.0213 67.6621 80.0073C67.7107 79.9933 67.7519 79.9608 67.7769 79.9169C67.8019 79.873 67.8088 79.8211 67.7961 79.7721C67.7834 79.7232 67.7521 79.6812 67.7089 79.655C67.2098 79.4269 66.7759 79.0772 66.4469 78.638C66.3102 78.4444 66.2409 78.2112 66.2495 77.9744C66.2582 77.7375 66.3444 77.5101 66.4949 77.327C66.814 77.0305 67.1695 76.7757 67.5529 76.569C67.9506 76.3102 68.2575 75.9337 68.4309 75.492C68.6201 74.9721 68.6029 74.3996 68.3829 73.892C68.3707 73.8694 68.3541 73.8495 68.3341 73.8334C68.314 73.8173 68.291 73.8054 68.2663 73.7983C68.2417 73.7912 68.2158 73.7892 68.1903 73.7922C68.1648 73.7952 68.1402 73.8033 68.1179 73.816C68.0723 73.8407 68.038 73.8821 68.0223 73.9315C68.0066 73.981 68.0108 74.0346 68.0339 74.081C68.1262 74.307 68.1706 74.5497 68.1644 74.7938C68.1582 75.0378 68.1015 75.2779 67.9979 75.499Z" fill="white"/>
<path d="M34.4868 94.136C34.5349 93.793 34.5349 93.445 34.4868 93.102C34.4308 92.8199 34.2865 92.563 34.0747 92.3685C33.8629 92.1739 33.5946 92.0519 33.3088 92.02C32.9604 91.9776 32.607 92.0145 32.2748 92.128C31.9748 92.228 31.6858 92.368 31.3748 92.453C31.2308 92.5083 31.0745 92.5242 30.9222 92.4989C30.77 92.4735 30.6273 92.408 30.5088 92.309C30.2963 92.1088 30.138 91.858 30.0488 91.58C29.947 91.279 29.9148 90.9588 29.9546 90.6435C29.9944 90.3283 30.1053 90.0262 30.2788 89.76C30.4108 89.555 30.0858 89.363 29.9418 89.567C29.6233 90.0625 29.4912 90.6551 29.5688 91.239C29.5973 91.5338 29.6869 91.8194 29.8318 92.0777C29.9768 92.3359 30.174 92.5612 30.4108 92.739C30.9998 93.124 31.6608 92.763 32.2388 92.559C32.513 92.4167 32.8248 92.3634 33.1307 92.4064C33.4366 92.4494 33.7215 92.5866 33.9458 92.799C34.1269 93.1245 34.1864 93.5037 34.1138 93.869C34.0903 94.2957 34.0233 94.7189 33.9138 95.132C33.8658 95.348 34.2388 95.457 34.2988 95.216C34.3925 94.8621 34.4554 94.5007 34.4868 94.136Z" fill="white"/>
<path d="M69.7289 95.363C69.1039 95.339 68.6589 95.916 68.2139 96.276C67.7857 96.7096 67.2288 96.993 66.6263 97.084C66.0238 97.1751 65.408 97.0688 64.8709 96.781C64.6181 96.6182 64.4163 96.3875 64.2886 96.1153C64.1609 95.8431 64.1125 95.5404 64.1489 95.242C64.1979 94.999 63.8249 94.894 63.7769 95.134C63.7209 95.6809 63.8749 96.2286 64.2076 96.6663C64.5403 97.1039 65.0269 97.3987 65.5689 97.491C66.1807 97.588 66.8076 97.4999 67.3689 97.238C67.9374 96.9687 68.4575 96.6071 68.9079 96.168C69.1279 95.976 69.4159 95.711 69.7289 95.759C69.9289 95.783 70.2339 96.012 70.1019 96.24C70.0179 96.44 70.3419 96.64 70.4629 96.42C70.7389 95.928 70.2339 95.387 69.7289 95.363Z" fill="white"/>
<path d="M55.8049 83.194C55.7741 83.4712 55.676 83.7366 55.5191 83.9672C55.3622 84.1978 55.1514 84.3865 54.9049 84.517C54.384 84.8099 53.9324 85.2117 53.5809 85.695C53.4226 85.9211 53.3427 86.1928 53.3535 86.4686C53.3643 86.7444 53.4653 87.0091 53.6409 87.222C53.8606 87.4127 54.1214 87.55 54.403 87.623C54.6846 87.696 54.9793 87.7029 55.2639 87.643C55.3719 87.631 55.4199 87.499 55.3959 87.403C55.3719 87.307 55.2639 87.254 55.1539 87.27C54.9258 87.3199 54.6888 87.3118 54.4645 87.2467C54.2402 87.1815 54.0358 87.0613 53.8699 86.897C53.5089 86.428 53.8699 85.839 54.2189 85.49C54.6189 85.09 55.1329 84.865 55.5419 84.49C55.7515 84.3159 55.918 84.0957 56.0283 83.8466C56.1387 83.5975 56.1899 83.3262 56.1779 83.054C56.1024 82.393 55.8057 81.777 55.3359 81.306C55.1679 81.138 54.9039 81.414 55.0719 81.595C55.5083 82.0171 55.77 82.5879 55.8049 83.194Z" fill="white"/>
<path d="M51.429 98.404C51.5476 98.6333 51.5976 98.892 51.573 99.149C51.5145 99.4483 51.4002 99.734 51.236 99.991C51.0616 100.259 50.9269 100.551 50.836 100.857C50.7677 101.138 50.7718 101.432 50.848 101.711C50.919 101.99 51.0573 102.248 51.2508 102.462C51.4442 102.676 51.687 102.839 51.958 102.938C52.2692 103.042 52.6029 103.059 52.9229 102.986C53.243 102.914 53.5373 102.756 53.774 102.529C53.954 102.361 53.674 102.084 53.497 102.252C53.2996 102.442 53.0513 102.57 52.7824 102.621C52.5134 102.673 52.2353 102.645 51.982 102.541C51.7381 102.427 51.5323 102.245 51.3893 102.016C51.2464 101.788 51.1723 101.523 51.176 101.254C51.176 100.641 51.645 100.16 51.849 99.619C51.9416 99.3669 51.9747 99.0968 51.9456 98.8298C51.9164 98.5628 51.8259 98.3061 51.681 98.08C51.5289 97.8194 51.3137 97.6013 51.0553 97.4456C50.7968 97.2899 50.5034 97.2016 50.202 97.189C49.962 97.166 49.962 97.563 50.202 97.563C50.4629 97.5811 50.7142 97.6686 50.93 97.8164C51.1457 97.9643 51.318 98.1671 51.429 98.404Z" fill="white"/>
<path d="M37.5648 62.453C37.7455 62.9361 37.7326 63.4702 37.5288 63.944C37.3023 64.4564 36.9705 64.9154 36.5548 65.291C36.2178 65.64 35.8338 66.145 36.0978 66.65C36.2698 66.8969 36.5263 67.0723 36.8188 67.143C37.162 67.2629 37.5261 67.3119 37.8888 67.287C38.1418 67.275 38.1418 66.887 37.8888 66.902C37.5794 66.9163 37.27 66.8757 36.9748 66.782C36.7588 66.71 36.4348 66.601 36.4098 66.337C36.4271 66.1005 36.5298 65.8784 36.6988 65.712C36.8788 65.512 37.0838 65.327 37.2518 65.123C37.6284 64.7441 37.8877 64.2647 37.9985 63.7421C38.1094 63.2196 38.0671 62.6761 37.8768 62.177C37.7722 61.9291 37.6148 61.7071 37.4154 61.5264C37.2161 61.3457 36.9797 61.2108 36.7228 61.131C36.6733 61.121 36.6219 61.13 36.5788 61.1563C36.5357 61.1826 36.5042 61.2243 36.4905 61.2729C36.4769 61.3215 36.4821 61.3734 36.5051 61.4183C36.5282 61.4632 36.5674 61.4978 36.6148 61.515C36.8337 61.5895 37.0328 61.7126 37.1973 61.8751C37.3619 62.0375 37.4875 62.2351 37.5648 62.453Z" fill="white"/>
<path d="M46.3309 71.88C46.0065 71.9479 45.7052 72.0988 45.4565 72.3178C45.2078 72.5369 45.0202 72.8167 44.9119 73.13C44.6469 73.767 44.5869 74.549 44.0699 75.042C43.795 75.2791 43.4561 75.4297 43.0959 75.475C42.738 75.5431 42.3702 75.5391 42.0139 75.463C41.6225 75.3407 41.2646 75.1295 40.9685 74.8459C40.6723 74.5622 40.4459 74.2138 40.3069 73.828C40.2219 73.599 39.8499 73.696 39.9339 73.936C40.1948 74.6614 40.7124 75.2662 41.3889 75.636C42.061 75.9589 42.8317 76.0104 43.5409 75.78C43.9073 75.6801 44.2346 75.4708 44.4789 75.18C44.6994 74.8914 44.8664 74.5656 44.9719 74.218C45.1769 73.587 45.3089 72.818 45.9219 72.444C46.227 72.2625 46.5847 72.1899 46.9364 72.2382C47.2882 72.2866 47.6131 72.4529 47.8579 72.71C48.0139 72.89 48.2909 72.626 48.1229 72.433C47.8956 72.1965 47.6118 72.0216 47.2984 71.9249C46.9849 71.8282 46.652 71.8127 46.3309 71.88Z" fill="white"/>
<path d="M68.4429 53.483C67.9536 53.8226 67.5024 54.2138 67.0969 54.65C66.8894 54.8465 66.6381 54.9908 66.3639 55.071C65.9937 55.1529 65.6073 55.118 65.2579 54.971C64.889 54.8515 64.5519 54.6502 64.2719 54.382C64.0134 54.0998 63.8201 53.7642 63.7059 53.399C63.6915 53.3495 63.6582 53.3078 63.613 53.2829C63.5679 53.2581 63.5148 53.2522 63.4654 53.2665C63.4159 53.2808 63.3741 53.3142 63.3493 53.3593C63.3244 53.4044 63.3185 53.4575 63.3329 53.507C63.5141 54.1617 63.9407 54.7215 64.5239 55.07C64.8286 55.2716 65.1733 55.405 65.5343 55.4611C65.8954 55.5172 66.2643 55.4947 66.6159 55.395C67.1482 55.1256 67.6223 54.7538 68.0109 54.301C68.1892 54.0852 68.4164 53.9149 68.6735 53.8041C68.9307 53.6933 69.2105 53.6453 69.4899 53.664C69.7935 53.704 70.0787 53.8325 70.3098 54.0335C70.541 54.2344 70.7079 54.4989 70.7899 54.794C70.8053 54.8438 70.8395 54.8856 70.8853 54.9106C70.9311 54.9355 70.9848 54.9416 71.035 54.9275C71.0851 54.9134 71.1279 54.8803 71.154 54.8352C71.1801 54.7901 71.1876 54.7365 71.1749 54.686C71.0982 54.4109 70.9614 54.1563 70.7744 53.9405C70.5874 53.7247 70.3549 53.5531 70.0935 53.438C69.8322 53.3229 69.5486 53.2672 69.2631 53.275C68.9777 53.2828 68.6975 53.3538 68.4429 53.483Z" fill="white"/>
<path d="M33.513 78.577C33.5629 79.1112 33.5096 79.65 33.356 80.164C33.3032 80.3997 33.2984 80.6436 33.3419 80.8812C33.3853 81.1188 33.4762 81.3452 33.609 81.547C33.7452 81.7225 33.9204 81.8638 34.1207 81.9598C34.321 82.0558 34.5409 82.1038 34.763 82.1C35.0184 82.0862 35.2669 82.0123 35.4885 81.8844C35.71 81.7566 35.8983 81.5783 36.038 81.364C36.182 81.164 35.846 80.964 35.701 81.172C35.5836 81.3488 35.4219 81.4918 35.2321 81.5867C35.0422 81.6816 34.8309 81.7252 34.619 81.713C34.4105 81.694 34.2131 81.6109 34.0537 81.4752C33.8944 81.3394 33.7809 81.1577 33.729 80.955C33.501 80.017 34.27 79.007 33.717 78.117C33.6059 77.9153 33.4315 77.7558 33.2209 77.6629C33.0102 77.57 32.7748 77.549 32.551 77.603C32.325 77.664 32.431 78.036 32.671 77.964C33.068 77.831 33.425 78.216 33.513 78.577Z" fill="white"/>
<path d="M55.7938 56.862C55.6882 57.5471 55.3923 58.1888 54.9398 58.714C54.3818 59.3331 53.7006 59.8287 52.9398 60.169C51.9271 60.6274 50.8721 60.9858 49.7898 61.239C48.1524 61.7224 46.4304 61.8496 44.7398 61.612C43.678 61.4291 42.6929 60.9397 41.9058 60.204C41.3015 59.592 40.8054 58.882 40.4388 58.104C40.3939 58.0221 40.3538 57.9376 40.3188 57.851C40.2108 57.623 39.8738 57.827 39.9818 58.043C40.3585 58.8463 40.8441 59.594 41.4248 60.265C42.1857 61.0757 43.1686 61.6444 44.2508 61.9C45.9054 62.2409 47.6164 62.1957 49.2508 61.768C50.3968 61.5261 51.5195 61.1841 52.6058 60.746C53.4534 60.4134 54.2329 59.9284 54.9058 59.315C55.452 58.7997 55.8507 58.1479 56.0608 57.427C56.256 56.6796 56.2715 55.8965 56.1058 55.142C56.0651 54.931 56.013 54.7223 55.9498 54.517C55.9354 54.4691 55.9027 54.4289 55.8587 54.4052C55.8147 54.3814 55.7631 54.3762 55.7153 54.3905C55.6674 54.4048 55.6272 54.4376 55.6034 54.4815C55.5797 54.5255 55.5744 54.5771 55.5888 54.625C55.8184 55.347 55.8884 56.1103 55.7938 56.862Z" fill="white"/>
<path d="M77.4073 52.0055L85.2236 71.9688L85.0002 72.0563L77.1838 52.093L77.4073 52.0055Z" fill="white"/>
<path d="M83.3959 67.593L83.4614 67.8239L73.8414 70.5539L73.7759 70.323L83.3959 67.593Z" fill="white"/>
<path d="M80.4189 55.767C68.9959 49.514 62.6189 45.787 62.6189 45.787C60.9431 45.4047 59.3539 44.7113 57.9339 43.743C56.3709 42.42 58.3549 35.503 58.3549 35.503C58.3549 35.503 57.0929 31.358 57.6939 30.998C58.2949 30.638 59.1339 30.276 61.1809 32.08C62.5568 33.4639 63.5868 35.153 64.1869 37.01C64.1869 37.01 89.9179 40.497 97.3729 43.142C104.828 45.787 111.321 49.034 110.72 56.609C110.119 64.184 102.303 63.222 102.303 63.222C94.6289 62.0338 87.2223 59.5107 80.4189 55.767Z" fill="#F9D2DD"/>
<path d="M57.9339 33.968C58.1339 34.81 58.3549 35.507 58.3549 35.507C58.3549 35.507 56.3709 42.421 57.9339 43.744C58.7935 44.3905 59.7518 44.894 60.7719 45.235C61.7719 43.96 63.1649 41.664 62.6839 39.115C62.1549 36.313 59.3889 34.653 57.9339 33.968Z" fill="#F9ACC0"/>
<path d="M57.4679 43.2275C55.5002 43.4728 53.6628 41.6682 53.3547 39.1964C53.0465 36.7245 54.3846 34.5241 56.3524 34.2788C58.3201 34.0335 60.1576 35.839 60.4656 38.3099C60.7736 40.7808 59.4317 42.9827 57.4679 43.2275Z" fill="#F99A3D"/>
<path d="M56.6163 42.0772C55.1912 42.1743 53.9376 40.8019 53.8157 39.0125C53.6938 37.2231 54.7497 35.6943 56.1748 35.5972C57.5999 35.5001 58.8535 36.8725 58.9754 38.6609C59.0972 40.4494 58.0415 41.9801 56.6163 42.0772Z" fill="#FF7F2D"/>
<path d="M35.6298 42.722C35.2928 46.122 40.7998 47.532 40.7998 47.532C41.4818 49.8583 42.004 52.2285 42.3628 54.626C42.5039 56.2663 42.5039 57.9157 42.3628 59.556C44.3716 60.6925 46.7464 60.9949 48.9758 60.398C53.9058 59.316 54.1458 57.272 54.1458 57.272L52.2218 49.336C53.3999 48.9116 54.4382 48.1709 55.223 47.1952C56.0078 46.2196 56.5088 45.0466 56.6708 43.805C57.5128 39.356 56.0708 33.945 56.0708 33.945L49.9388 35.145L48.0148 33.463V35.507L42.2428 37.07L40.6798 35.387C40.6798 35.387 41.7618 36.71 41.1608 39.716C40.5598 42.722 40.1988 42.842 40.1988 42.842L39.9588 40.678C39.9588 40.678 36.1148 37.792 35.6298 42.722Z" fill="#F9D2DD"/>
<path d="M44.8504 43.5762C43.4849 43.8252 42.2545 43.3492 42.102 42.513C41.9495 41.6768 42.9327 40.7972 44.2982 40.5482C45.6636 40.2991 46.894 40.7751 47.0465 41.6113C47.199 42.4476 46.2149 43.3274 44.8504 43.5762Z" fill="#F9ACC0"/>
<path d="M52.2819 36.649C52.3628 36.4948 52.4754 36.3595 52.6122 36.2518C52.749 36.1441 52.907 36.0665 53.0759 36.024C53.2373 35.9865 53.4034 35.9727 53.5689 35.983C53.738 35.994 53.9025 36.0432 54.0499 36.127C54.1973 36.201 54.3194 36.3171 54.4008 36.4606C54.4821 36.6041 54.519 36.7685 54.5069 36.933C54.3182 36.7785 54.0877 36.6838 53.8449 36.661C53.7452 36.649 53.6445 36.649 53.5449 36.661C53.4922 36.6624 53.4399 36.6698 53.3889 36.683C53.3289 36.683 53.2889 36.707 53.2449 36.707C53.156 36.7275 53.0707 36.7612 52.9919 36.807C52.8998 36.8495 52.8145 36.9055 52.7389 36.973C52.5829 37.129 52.4139 37.322 52.2219 37.55C52.1693 37.4038 52.1474 37.2483 52.1578 37.0932C52.1681 36.9382 52.2103 36.787 52.2819 36.649Z" fill="#1F1F39"/>
<path d="M44.6349 38.275C44.6998 38.1261 44.7938 37.9917 44.9115 37.8797C45.0291 37.7678 45.168 37.6805 45.3199 37.623C45.3689 37.611 45.4009 37.599 45.4529 37.587L45.5129 37.575H45.7129C45.7532 37.5736 45.7936 37.5777 45.8329 37.587C45.993 37.6055 46.1481 37.6544 46.2899 37.731C46.4344 37.8153 46.5546 37.9355 46.6389 38.08C46.6753 38.1515 46.6997 38.2285 46.7109 38.308C46.7257 38.3841 46.7222 38.4625 46.7009 38.537C46.606 38.4565 46.5007 38.3893 46.3879 38.337C46.295 38.305 46.1987 38.2842 46.1009 38.275H45.7409C45.7169 38.275 45.7009 38.284 45.6809 38.284H45.6569L45.6329 38.296C45.6209 38.296 45.5969 38.308 45.5849 38.308C45.4129 38.3811 45.2543 38.4825 45.1159 38.608C44.9239 38.752 44.7549 38.933 44.5269 39.113C44.4725 38.8293 44.5103 38.5356 44.6349 38.275Z" fill="#1F1F39"/>
<path d="M50.6839 38.417C50.8191 38.5261 50.9403 38.6514 51.0449 38.79C51.1588 38.9341 51.2369 39.103 51.2729 39.283C51.287 39.3792 51.283 39.4773 51.2609 39.572C51.2523 39.6183 51.2361 39.6629 51.2129 39.704C51.2031 39.752 51.1826 39.7971 51.1529 39.836C51.0687 40.0018 50.9394 40.1404 50.7799 40.236C50.4856 40.4181 50.1359 40.4891 49.7939 40.436C50.111 40.3794 50.4111 40.2519 50.6719 40.063C50.7928 39.9748 50.8847 39.8526 50.9359 39.712C50.9515 39.68 50.9635 39.6465 50.9719 39.612C50.9845 39.5799 50.9926 39.5463 50.9959 39.512C51.0075 39.4458 51.0075 39.3782 50.9959 39.312C50.9686 39.1684 50.9114 39.0321 50.8279 38.912C50.7382 38.7835 50.6378 38.6628 50.5279 38.551C50.3108 38.3173 50.0732 38.1034 49.8179 37.912C50.1318 38.0329 50.4242 38.2034 50.6839 38.417Z" fill="#1F1F39"/>
<path d="M50.4308 41.892C51.1864 41.7724 51.9054 41.4846 52.5348 41.05C52.5348 41.05 53.3528 43.707 52.4348 44.621C51.5168 45.535 49.1688 45.679 48.5558 44.008C47.9428 42.337 48.1468 41.964 48.1468 41.964C48.9072 42.0601 49.678 42.0358 50.4308 41.892Z" fill="#F95368"/>
<path d="M52.7629 43.992C52.1025 43.7547 51.385 43.7265 50.7079 43.911C50.1079 44.0731 49.558 44.3824 49.1079 44.811C49.6041 45.1513 50.1992 45.3172 50.7999 45.2829C51.4005 45.2485 51.9728 45.0157 52.4269 44.621C52.59 44.4429 52.7056 44.2266 52.7629 43.992Z" fill="#F9ACC0"/>
<path d="M41.161 39.728C40.561 42.734 40.199 42.854 40.199 42.854L39.959 40.69C39.8634 40.6194 39.7632 40.5552 39.659 40.498L37.229 45.848C38.3116 46.6138 39.5203 47.1834 40.8 47.531C40.8 47.531 40.92 47.931 41.077 48.553C42.0821 47.2794 42.7531 45.7748 43.029 44.176C43.325 43.1614 43.322 42.083 43.0205 41.07C42.719 40.0571 42.1317 39.1526 41.329 38.465C41.3039 38.8895 41.2477 39.3117 41.161 39.728Z" fill="#F9ACC0"/>
<path d="M39.5832 47.5069C37.4032 47.6546 35.486 45.5564 35.3005 42.8196C35.1151 40.0829 36.7318 37.7453 38.9118 37.5976C41.0918 37.4499 43.009 39.5481 43.1944 42.2848C43.3799 45.0215 41.7632 47.3592 39.5832 47.5069Z" fill="#F99A3D"/>
<path d="M39.058 45.5634C37.6333 45.6599 36.3807 44.2875 36.2595 42.4986C36.1383 40.7097 37.1944 39.1818 38.6191 39.0853C40.0439 38.9887 41.2965 40.3612 41.4176 42.1491C41.5388 43.937 40.4828 45.4669 39.058 45.5634Z" fill="#FF7F2D"/>
<path d="M35.9909 28.292C34.8526 30.3082 34.2714 32.591 34.3069 34.906C34.2709 36.5228 34.4334 38.1378 34.7909 39.715L37.5449 38.515C37.5449 38.515 36.6909 32.801 38.0339 29.495C38.6534 27.9003 39.7284 26.5232 41.1249 25.535C41.1969 25.487 41.6419 25.198 42.0149 24.994C42.1349 24.934 42.2429 24.886 42.3279 24.838L42.7279 24.682C42.7279 24.682 43.3169 24.333 43.8099 24.082C44.3957 23.8076 44.9967 23.5669 45.6099 23.361C43.9489 22.8592 42.1658 22.944 40.5599 23.601C38.5682 24.6274 36.9644 26.2739 35.9909 28.292Z" fill="#F99A3D"/>
<path d="M46.0539 105.847C43.9979 105.414 41.7369 104.717 40.6429 102.937C39.8489 101.65 39.7529 99.943 40.3429 97.743C40.9799 95.35 43.0719 93.354 45.4889 91.043C48.6389 88.037 52.2099 84.622 53.5689 79.343C55.3489 72.417 49.0839 67.319 44.5269 63.591C43.2206 62.6032 41.9981 61.5091 40.8719 60.32C39.4889 58.689 38.7319 55.984 38.6349 52.304C38.5948 50.6247 38.6794 48.9448 38.8879 47.278C38.8922 47.246 38.9028 47.2153 38.9191 47.1874C38.9354 47.1596 38.9571 47.1353 38.9829 47.116C39.0086 47.0966 39.038 47.0826 39.0693 47.0747C39.1005 47.0668 39.133 47.0652 39.1649 47.07C39.227 47.0826 39.282 47.1181 39.319 47.1694C39.3561 47.2208 39.3725 47.2841 39.3649 47.347C39.3569 47.434 38.0939 56.308 41.2329 60.024C42.3382 61.1894 43.5365 62.2629 44.8159 63.234C49.4809 67.034 55.8779 72.252 54.0259 79.478C52.6429 84.889 49.0119 88.352 45.8139 91.406C43.4449 93.642 41.4009 95.59 40.7999 97.863C40.2469 99.931 40.3309 101.518 41.0529 102.685C41.8469 103.985 43.3739 104.785 46.1529 105.378C48.4144 105.87 50.7351 106.032 53.0429 105.859C53.0737 105.855 53.105 105.857 53.135 105.865C53.1649 105.874 53.193 105.887 53.2175 105.906C53.2421 105.925 53.2627 105.949 53.2781 105.976C53.2935 106.003 53.3035 106.033 53.3074 106.063C53.3114 106.094 53.3092 106.126 53.3011 106.156C53.2929 106.185 53.2789 106.214 53.26 106.238C53.241 106.263 53.2173 106.283 53.1904 106.299C53.1634 106.314 53.1337 106.324 53.1029 106.328C52.5199 106.392 51.9334 106.42 51.3469 106.412C49.5678 106.407 47.794 106.218 46.0539 105.847Z" fill="#1F1F39"/>
<path d="M50.298 68.873C50.2592 68.8231 50.2412 68.7601 50.248 68.6972C50.2547 68.6344 50.2855 68.5766 50.334 68.536C50.407 68.477 57.441 62.813 59.447 55.875C60.6175 51.5809 60.283 47.0156 58.499 42.938C58.4848 42.9096 58.4763 42.8786 58.474 42.8469C58.4717 42.8152 58.4757 42.7833 58.4857 42.7531C58.4957 42.7229 58.5116 42.695 58.5324 42.671C58.5532 42.6469 58.5786 42.6272 58.607 42.613C58.6355 42.5987 58.6664 42.5902 58.6981 42.588C58.7298 42.5857 58.7617 42.5897 58.7919 42.5997C58.8221 42.6097 58.85 42.6256 58.874 42.6464C58.8981 42.6672 58.9178 42.6926 58.932 42.721C60.7659 46.9042 61.1097 51.5899 59.906 55.996C57.862 63.078 50.707 68.837 50.635 68.897C50.6198 68.9209 50.5983 68.9402 50.573 68.9529C50.5476 68.9655 50.5193 68.9711 50.491 68.969C50.4537 68.9683 50.4171 68.9594 50.3837 68.9428C50.3503 68.9262 50.321 68.9023 50.298 68.873Z" fill="#1F1F39"/>
<path d="M47.7259 87.895L48.1459 87.475C48.2341 87.3815 48.3401 87.3067 48.4578 87.2549C48.5754 87.2031 48.7022 87.1755 48.8307 87.1736C48.9592 87.1717 49.0868 87.1956 49.2059 87.2439C49.325 87.2922 49.4332 87.3639 49.5241 87.4547C49.6151 87.5456 49.6868 87.6537 49.7352 87.7728C49.7836 87.8919 49.8076 88.0194 49.8058 88.1479C49.804 88.2764 49.7764 88.4033 49.7247 88.5209C49.6731 88.6386 49.5983 88.7447 49.5049 88.833L49.0839 89.254C48.902 89.4256 48.6603 89.5196 48.4102 89.5159C48.1602 89.5122 47.9214 89.4112 47.7446 89.2343C47.5678 89.0574 47.467 88.8185 47.4635 88.5684C47.46 88.3184 47.5541 88.0768 47.7259 87.895Z" fill="#1F1F39"/>
<path d="M52.2949 49.659C52.3429 49.467 50.7799 50.067 49.0959 50.067C46.3189 50.067 45.3689 49.467 45.3689 49.467C45.3689 49.467 48.0139 52.834 50.7799 53.916C51.6522 54.2607 52.5654 54.491 53.4969 54.601L52.2949 49.659Z" fill="#F9ACC0"/>
<path d="M44.9718 49.443C44.9583 49.4375 44.946 49.4294 44.9356 49.4191C44.9252 49.4088 44.917 49.3966 44.9114 49.3831C44.9058 49.3696 44.903 49.3551 44.9031 49.3405C44.9031 49.3259 44.9061 49.3114 44.9118 49.298C44.9173 49.2845 44.9254 49.2721 44.9357 49.2618C44.946 49.2514 44.9583 49.2432 44.9718 49.2376C44.9853 49.232 44.9997 49.2292 45.0143 49.2292C45.0289 49.2293 45.0434 49.2323 45.0568 49.238C46.3441 49.7364 47.7168 49.9773 49.0968 49.947C50.1579 49.9207 51.21 49.7463 52.2228 49.429C52.237 49.424 52.252 49.4219 52.267 49.4229C52.282 49.4238 52.2967 49.4278 52.3101 49.4345C52.3235 49.4412 52.3355 49.4505 52.3452 49.462C52.355 49.4734 52.3623 49.4867 52.3668 49.501C52.3718 49.5152 52.3739 49.5302 52.373 49.5452C52.372 49.5602 52.3681 49.5748 52.3614 49.5883C52.3546 49.6017 52.3453 49.6136 52.3339 49.6234C52.3224 49.6331 52.3092 49.6405 52.2948 49.645C51.26 49.9778 50.1817 50.1561 49.0948 50.174H48.7948C47.4879 50.1524 46.1945 49.9051 44.9718 49.443Z" fill="#1F1F39"/>
<path d="M53.2448 107.532C52.8787 107.53 52.5281 107.384 52.2692 107.125C52.0103 106.866 51.8639 106.515 51.8618 106.149C51.8639 105.783 52.0103 105.432 52.2692 105.173C52.5281 104.914 52.8787 104.768 53.2448 104.766H72.2448C72.611 104.768 72.9615 104.914 73.2204 105.173C73.4793 105.432 73.6257 105.783 73.6278 106.149C73.6289 106.331 73.5938 106.511 73.5247 106.679C73.4556 106.848 73.3537 107.001 73.2251 107.129C73.0965 107.258 72.9436 107.36 72.7753 107.429C72.607 107.498 72.4267 107.533 72.2448 107.532H53.2448Z" fill="#EAEAFF"/>
<path d="M24.206 72.18L22.282 85.887L24.206 72.18Z" fill="#1F1F39"/>
<path d="M22.2719 86.008C22.2564 86.0065 22.2414 86.0017 22.2279 85.9941C22.2143 85.9865 22.2025 85.9762 22.1931 85.9638C22.1837 85.9514 22.177 85.9372 22.1733 85.9221C22.1697 85.907 22.1692 85.8913 22.1719 85.876L24.0979 72.17C24.1052 72.1422 24.1226 72.1181 24.1466 72.1024C24.1707 72.0867 24.1998 72.0805 24.2281 72.0849C24.2565 72.0894 24.2823 72.1043 24.3003 72.1267C24.3184 72.149 24.3275 72.1773 24.3259 72.206L22.4019 85.912C22.3956 85.9395 22.3804 85.9642 22.3587 85.9822C22.3371 86.0003 22.3101 86.0108 22.2819 86.012L22.2719 86.008Z" fill="#1F1F39"/>
<path d="M27.6959 38.032C28.7645 35.9813 30.3888 34.2728 32.3829 33.102C33.7059 32.741 34.0659 33.583 34.0659 33.583C34.3245 33.3543 34.6343 33.1911 34.9692 33.1074C35.304 33.0237 35.6542 33.0218 35.9899 33.102C36.2694 33.2099 36.5161 33.3885 36.7058 33.6205C36.8955 33.8524 37.0217 34.1296 37.0719 34.425C37.3469 34.2216 37.6747 34.102 38.0161 34.0805C38.3574 34.0591 38.6977 34.1367 38.9959 34.304C39.8379 34.785 39.5959 35.987 38.9959 36.704C38.3959 37.421 36.5959 38.748 36.4709 39.47C36.3459 40.192 39.4769 47.887 38.0339 53.057C36.5909 58.227 24.9279 78.673 19.5169 85.406C14.1059 92.139 7.13192 91.178 4.96792 89.495C3.03303 88.0156 1.69917 85.8857 1.21294 83.4991C0.726718 81.1124 1.12101 78.6305 2.32292 76.512C5.68892 70.012 27.6959 46.93 27.6959 46.93C27.6959 46.93 26.8519 40.076 27.6959 38.032Z" fill="#F9D2DD"/>
<path d="M33.4769 42.625C33.4409 42.457 32.6349 38.344 33.9819 36.877C34.8928 35.916 35.9092 35.0609 37.0119 34.328C37.0243 34.3192 37.0383 34.3132 37.0532 34.3102C37.068 34.3073 37.0833 34.3075 37.098 34.3109C37.1128 34.3143 37.1266 34.3208 37.1387 34.33C37.1507 34.3391 37.1607 34.3507 37.1679 34.364C37.1767 34.3763 37.1828 34.3904 37.1857 34.4052C37.1887 34.4201 37.1884 34.4354 37.185 34.4501C37.1816 34.4648 37.1751 34.4787 37.166 34.4907C37.1568 34.5028 37.1452 34.5128 37.1319 34.52C36.0514 35.2443 35.0517 36.0824 34.1499 37.02C32.8759 38.408 33.6929 42.529 33.6929 42.577C33.6958 42.5914 33.6959 42.6062 33.693 42.6206C33.6901 42.635 33.6845 42.6487 33.6763 42.6609C33.6681 42.673 33.6576 42.6835 33.6453 42.6916C33.6331 42.6997 33.6194 42.7052 33.6049 42.708C33.6049 42.72 33.5929 42.72 33.5809 42.72C33.5555 42.7181 33.5314 42.7077 33.5125 42.6905C33.4937 42.6733 33.4811 42.6502 33.4769 42.625Z" fill="#1F1F39"/>
<path d="M29.99 40.93C29.978 40.798 29.765 37.623 30.856 36.277C31.8013 35.235 32.8575 34.2995 34.006 33.487C34.0303 33.4692 34.0607 33.4617 34.0905 33.4662C34.1203 33.4707 34.1471 33.4868 34.165 33.511C34.1813 33.5353 34.1876 33.565 34.1826 33.5939C34.1775 33.6228 34.1616 33.6486 34.138 33.666C33.0098 34.4664 31.9706 35.3853 31.038 36.407C29.99 37.683 30.219 40.866 30.219 40.894C30.2216 40.9289 30.2105 40.9634 30.1881 40.9902C30.1657 41.0171 30.1338 41.0342 30.099 41.038C30.0848 41.0381 30.0706 41.0354 30.0574 41.0301C30.0442 41.0247 30.0322 41.0168 30.022 41.0067C30.0119 40.9967 30.0038 40.9847 29.9984 40.9716C29.9929 40.9584 29.99 40.9443 29.99 40.93Z" fill="#1F1F39"/>
<path d="M72.7839 64.004L74.5839 75.066L72.7839 64.004Z" fill="#1F1F39"/>
<path d="M74.479 75.094L72.674 64.028C72.6697 63.997 72.6778 63.9656 72.6965 63.9405C72.7152 63.9154 72.743 63.8987 72.774 63.894C72.8043 63.8908 72.8348 63.8994 72.859 63.918C72.8832 63.9366 72.8993 63.9638 72.904 63.994L74.704 75.056C74.7077 75.0867 74.6994 75.1176 74.6807 75.1422C74.662 75.1669 74.6345 75.1833 74.604 75.188H74.588C74.5746 75.1892 74.5611 75.1877 74.5483 75.1836C74.5355 75.1795 74.5237 75.1729 74.5135 75.1641C74.5033 75.1554 74.495 75.1446 74.4891 75.1326C74.4832 75.1205 74.4797 75.1074 74.479 75.094Z" fill="#1F1F39"/>
<path d="M49.1918 42.577C49.195 42.6109 49.2052 42.6437 49.2218 42.6734C49.2384 42.703 49.2611 42.7289 49.2883 42.7492C49.3156 42.7696 49.3468 42.784 49.3799 42.7916C49.4131 42.7991 49.4475 42.7996 49.4808 42.793L50.6588 42.599C51.0577 42.5209 51.4512 42.4174 51.8368 42.289C51.8708 42.2837 51.9034 42.2716 51.9326 42.2536C51.9619 42.2356 51.9874 42.212 52.0074 42.1841C52.0275 42.1562 52.0419 42.1246 52.0497 42.0911C52.0575 42.0576 52.0585 42.0229 52.0528 41.989L51.9218 41.399C51.4447 41.6262 50.9407 41.7918 50.4218 41.892C49.9962 41.9701 49.5645 42.0102 49.1318 42.012L49.1918 42.577Z" fill="white"/>
<path d="M1.50487 78.433C0.871433 80.4089 0.864175 82.5323 1.48409 84.5126C2.104 86.4928 3.32079 88.233 4.96787 89.495C7.13187 91.178 14.1059 92.14 19.5169 85.407C20.0459 84.746 20.6469 83.94 21.2849 83.038C18.6749 84.77 13.3969 87.427 7.85387 85.287C6.32557 84.7339 4.9518 83.8231 3.8473 82.6308C2.7428 81.4384 1.93963 79.9991 1.50487 78.433V78.433Z" fill="#F9ACC0"/>
<path d="M55.596 37.9C54.242 38.152 53.256 39.035 53.412 39.872C53.568 40.709 54.796 41.195 56.154 40.942C56.4218 40.8932 56.6839 40.8168 56.936 40.714C56.9312 39.7616 56.8748 38.8102 56.767 37.864C56.3771 37.8161 55.9822 37.8282 55.596 37.9Z" fill="#F9ACC0"/>
<path d="M160 74.947V98.862H90.1699C88.5996 98.862 87.0447 98.5527 85.5939 97.9517C84.1432 97.3508 82.825 96.4699 81.7147 95.3595C80.6043 94.2491 79.7236 92.9308 79.1228 91.48C78.5219 90.0292 78.2128 88.4743 78.2129 86.904C78.2129 83.7328 79.4726 80.6915 81.715 78.4491C83.9574 76.2067 86.9987 74.947 90.1699 74.947H160Z" fill="#F3FBFF"/>
<path d="M86.55 83.348V93.078H91.436V91.79H88.146V83.348H86.55ZM92.2387 89.186C92.2387 91.566 93.8487 93.204 95.8507 93.204C97.1387 93.204 98.0627 92.588 98.5527 91.93V93.078H100.163V85.364H98.5527V86.484C98.0767 85.854 97.1807 85.238 95.8787 85.238C93.8487 85.238 92.2387 86.806 92.2387 89.186ZM98.5527 89.214C98.5527 90.88 97.4187 91.818 96.2147 91.818C95.0247 91.818 93.8767 90.852 93.8767 89.186C93.8767 87.52 95.0247 86.624 96.2147 86.624C97.4187 86.624 98.5527 87.562 98.5527 89.214ZM107.733 93.078H109.315V88.528C109.315 86.372 107.957 85.238 106.151 85.238C105.227 85.238 104.373 85.616 103.855 86.246V85.364H102.259V93.078H103.855V88.766C103.855 87.352 104.625 86.624 105.801 86.624C106.963 86.624 107.733 87.352 107.733 88.766V93.078ZM110.819 89.186C110.819 91.566 112.429 93.204 114.459 93.204C115.719 93.204 116.643 92.574 117.133 91.916V93.204C117.133 94.744 116.209 95.5 114.977 95.5C113.871 95.5 113.017 94.954 112.779 94.156H111.197C111.393 95.864 112.919 96.886 114.977 96.886C117.385 96.886 118.743 95.304 118.743 93.204V85.364H117.133V86.484C116.657 85.826 115.719 85.238 114.459 85.238C112.429 85.238 110.819 86.806 110.819 89.186ZM117.133 89.214C117.133 90.88 115.999 91.818 114.795 91.818C113.605 91.818 112.457 90.852 112.457 89.186C112.457 87.52 113.605 86.624 114.795 86.624C115.999 86.624 117.133 87.562 117.133 89.214ZM127.825 85.364H126.229V89.662C126.229 91.076 125.459 91.804 124.283 91.804C123.121 91.804 122.351 91.076 122.351 89.662V85.364H120.769V89.9C120.769 92.056 122.141 93.19 123.947 93.19C124.857 93.19 125.725 92.812 126.229 92.154V93.078H127.825V85.364ZM133.179 86.582C134.369 86.582 135.307 87.338 135.335 88.528H131.065C131.233 87.31 132.101 86.582 133.179 86.582ZM136.791 90.782H135.069C134.775 91.384 134.229 91.86 133.249 91.86C132.073 91.86 131.163 91.09 131.051 89.816H136.945C136.987 89.55 137.001 89.298 137.001 89.032C137.001 86.764 135.447 85.238 133.249 85.238C130.967 85.238 129.399 86.792 129.399 89.214C129.399 91.636 131.037 93.204 133.249 93.204C135.139 93.204 136.357 92.126 136.791 90.782ZM138.039 89.186C138.039 91.566 139.649 93.204 141.679 93.204C142.939 93.204 143.863 92.574 144.353 91.916V93.204C144.353 94.744 143.429 95.5 142.197 95.5C141.091 95.5 140.237 94.954 139.999 94.156H138.417C138.613 95.864 140.139 96.886 142.197 96.886C144.605 96.886 145.963 95.304 145.963 93.204V85.364H144.353V86.484C143.877 85.826 142.939 85.238 141.679 85.238C139.649 85.238 138.039 86.806 138.039 89.186ZM144.353 89.214C144.353 90.88 143.219 91.818 142.015 91.818C140.825 91.818 139.677 90.852 139.677 89.186C139.677 87.52 140.825 86.624 142.015 86.624C143.219 86.624 144.353 87.562 144.353 89.214ZM151.308 86.582C152.498 86.582 153.436 87.338 153.464 88.528H149.194C149.362 87.31 150.23 86.582 151.308 86.582ZM154.92 90.782H153.198C152.904 91.384 152.358 91.86 151.378 91.86C150.202 91.86 149.292 91.09 149.18 89.816H155.074C155.116 89.55 155.13 89.298 155.13 89.032C155.13 86.764 153.576 85.238 151.378 85.238C149.096 85.238 147.528 86.792 147.528 89.214C147.528 91.636 149.166 93.204 151.378 93.204C153.268 93.204 154.486 92.126 154.92 90.782Z" fill="#3D5CFF"/>
</svg>
