<svg width="160" height="108" viewBox="0 0 160 108" fill="none" xmlns="http://www.w3.org/2000/svg">
<path d="M12 108L148 108C154.627 108 160 102.627 160 96V42.54C160 35.9126 154.627 30.54 148 30.54L12 30.54C5.37259 30.54 0 35.9126 0 42.54V96C0 102.627 5.37259 108 12 108Z" fill="#EFE0FF"/>
<path d="M100.765 70.373L99.3769 78.925L89.4869 83.758L91.0979 74.958L100.765 70.373Z" fill="#DADAF7"/>
<path d="M100.637 35.916C100.637 35.916 101.637 31.579 99.1539 30.96C97.6486 30.5848 96.1146 30.336 94.5679 30.216L78.7909 107.69L88.2479 107.678L100.637 35.916Z" fill="#DADAF7"/>
<path d="M94.5678 30.092C94.5678 30.092 96.0548 30.092 96.5508 30.712C96.8653 31.2779 96.9953 31.9277 96.9228 32.571L82.9798 107.677L29.0048 107.677L48.4628 28.976C48.4628 28.976 49.7028 25.63 54.0368 26.622L94.5678 30.092Z" fill="#EAEAFF"/>
<path d="M90.9738 37.404C90.9738 37.404 91.2218 35.793 89.8588 35.669L51.6858 32.199L43.8778 69.257L79.8198 75.082C79.8198 75.082 83.6618 76.074 84.1578 73.223L90.9738 37.404Z" fill="white"/>
<path d="M106.961 107.802H111.299L96.0548 51.658L94.4438 60.458L106.961 107.802Z" fill="#DADAF7"/>
<path d="M19.4421 65.082C13.4421 65.082 11.1421 58.798 15.9221 55.911C16.792 55.3953 17.8007 55.1624 18.8087 55.2446C19.8166 55.3268 20.7742 55.7201 21.5491 56.37C21.5491 56.37 21.5371 50.976 27.8821 51.076C34.2271 51.176 33.4821 57.93 33.4821 57.93C33.4821 57.93 36.7681 58.03 37.1651 60.967C37.6111 64.214 33.5461 65.082 31.4391 65.082H19.4421Z" fill="white"/>
<path d="M94.3321 72.926L102.425 58.202C102.281 56.7018 102.281 55.1912 102.425 53.691C102.74 52.3441 102.551 50.9284 101.892 49.712C101.359 49.055 99.7731 45.473 100.826 44.147C101.879 42.821 104.011 43.614 105.065 44.68C106.119 45.746 109.043 48.795 109.043 48.795C109.043 48.795 116.603 49.191 117.932 51.844C119.261 54.497 107.332 86.844 103.89 90.686C100.448 94.528 90.3681 92.409 85.7211 89.1C81.0741 85.791 88.3701 68.952 88.3701 68.952L94.3321 72.926Z" fill="#F9D2DD"/>
<path d="M85.7311 89.099C81.0961 85.79 88.3871 68.947 88.3871 68.947L92.2871 71.547L90.0931 91.305C88.5485 90.7645 87.0819 90.0228 85.7311 89.099Z" fill="#F9ACC0"/>
<path d="M101.384 48.782L105.871 45.461C106.809 46.428 108.089 47.766 108.709 48.398L102.537 52.161C102.578 51.3002 102.359 50.447 101.909 49.712C101.703 49.4203 101.527 49.1088 101.384 48.782Z" fill="#F9ACC0"/>
<path d="M114.497 65.365C114.497 64.522 114.497 61.126 113.171 60.321C111.808 59.503 107.871 60.185 106.008 58.338C104.801 56.9523 104.018 55.2485 103.752 53.43L102.389 53.963L102.426 53.703C102.438 53.579 102.463 53.468 102.476 53.344V53.294C102.491 53.1913 102.499 53.0878 102.501 52.984V52.959C102.513 52.736 102.526 52.525 102.526 52.315L103.479 50.505L113.332 50.815C114.906 51.72 117.372 50.705 117.944 51.843C118.452 52.859 117.002 58.263 114.833 64.757C114.734 64.9665 114.622 65.1696 114.497 65.365Z" fill="#F9ACC0"/>
<path d="M99.412 56.379L117.98 37.813C118.129 37.6631 118.213 37.4603 118.213 37.249C118.213 37.0376 118.129 36.8349 117.98 36.685C117.83 36.536 117.627 36.4524 117.416 36.4524C117.205 36.4524 117.002 36.536 116.852 36.685L98.286 55.253C98.137 55.4029 98.0534 55.6056 98.0534 55.817C98.0534 56.0283 98.137 56.2311 98.286 56.381C98.4361 56.5291 98.6386 56.612 98.8494 56.6116C99.0603 56.6113 99.2625 56.5277 99.412 56.379Z" fill="white"/>
<path d="M99.3761 57.409C98.9761 58.599 97.5171 58.995 97.2571 59.801C97.177 60.0177 97.1476 60.2499 97.1712 60.4798C97.1948 60.7096 97.2707 60.931 97.3931 61.127C96.9058 60.8892 96.5039 60.5068 96.2422 60.0319C95.9805 59.557 95.8719 59.0129 95.9311 58.474C96.0671 56.479 97.2571 54.756 98.9791 55.686C99.2267 55.8887 99.4 56.1679 99.4719 56.4797C99.5437 56.7915 99.5101 57.1184 99.3761 57.409Z" fill="#E88524"/>
<path d="M114.497 57.941C111.052 59.403 109.056 59.403 108.263 59.007C107.47 58.611 107.73 57.284 107.73 57.284C107.73 57.284 106.404 57.148 106.007 56.354C105.891 56.1278 105.83 55.8772 105.83 55.623C105.83 55.3687 105.891 55.1182 106.007 54.892C105.638 54.8173 105.29 54.659 104.992 54.4291C104.693 54.1992 104.452 53.904 104.285 53.566C104.156 53.3215 104.089 53.0493 104.089 52.773C104.089 52.4966 104.156 52.2244 104.285 51.98C103.88 51.9493 103.495 51.7912 103.186 51.5284C102.876 51.2656 102.658 50.9115 102.562 50.517C101.906 48.398 108.796 42.957 113.431 44.556C116.108 45.461 117.819 50.266 118.079 51.174C118.388 52.5438 118.196 53.9788 117.539 55.2198C116.882 56.4608 115.803 57.426 114.497 57.941Z" fill="#F9D2DD"/>
<path d="M109.739 49.054L103.803 51.854L109.739 49.054Z" fill="#1F1F39"/>
<path d="M103.864 51.967L109.8 49.166C109.816 49.1587 109.83 49.1484 109.841 49.1357C109.853 49.123 109.862 49.1081 109.867 49.0919C109.873 49.0757 109.876 49.0586 109.875 49.0414C109.874 49.0243 109.87 49.0075 109.862 48.992C109.855 48.9762 109.845 48.9619 109.832 48.9501C109.82 48.9384 109.805 48.9293 109.789 48.9235C109.772 48.9177 109.755 48.9153 109.738 48.9164C109.72 48.9175 109.704 48.9221 109.688 48.93L103.752 51.73C103.737 51.7373 103.723 51.7476 103.711 51.7603C103.7 51.773 103.691 51.7879 103.685 51.8041C103.679 51.8203 103.677 51.8374 103.678 51.8546C103.678 51.8717 103.683 51.8885 103.69 51.904C103.698 51.9272 103.713 51.9471 103.733 51.9605C103.754 51.9739 103.778 51.9801 103.802 51.978C103.823 51.9803 103.845 51.9765 103.864 51.967Z" fill="#1F1F39"/>
<path d="M111.449 52.239L106.008 54.891L111.449 52.239Z" fill="#1F1F39"/>
<path d="M106.069 55.001L111.51 52.351C111.526 52.3437 111.54 52.3334 111.551 52.3207C111.563 52.308 111.572 52.2931 111.577 52.2769C111.583 52.2607 111.586 52.2436 111.585 52.2264C111.584 52.2093 111.58 52.1925 111.572 52.177C111.565 52.1614 111.555 52.1475 111.542 52.1359C111.529 52.1244 111.514 52.1155 111.498 52.1097C111.482 52.104 111.465 52.1014 111.448 52.1024C111.43 52.1033 111.414 52.1076 111.398 52.115L105.958 54.768C105.943 54.7753 105.929 54.7856 105.917 54.7983C105.906 54.811 105.897 54.8259 105.891 54.8421C105.885 54.8582 105.883 54.8754 105.884 54.8926C105.884 54.9097 105.889 54.9265 105.896 54.942C105.905 54.9642 105.921 54.9831 105.941 54.9963C105.961 55.0095 105.984 55.0164 106.008 55.016C106.029 55.0169 106.051 55.0117 106.069 55.001Z" fill="#1F1F39"/>
<path d="M112.775 54.892L107.731 57.272L112.775 54.892Z" fill="#1F1F39"/>
<path d="M107.791 57.396L112.835 55.004C112.851 54.9967 112.865 54.9864 112.876 54.9737C112.888 54.961 112.897 54.9461 112.902 54.9299C112.908 54.9137 112.911 54.8966 112.91 54.8794C112.909 54.8623 112.905 54.8455 112.897 54.83C112.89 54.8144 112.88 54.8005 112.867 54.7889C112.854 54.7774 112.839 54.7685 112.823 54.7627C112.807 54.7569 112.79 54.7544 112.773 54.7554C112.755 54.7563 112.739 54.7606 112.723 54.768L107.679 57.161C107.664 57.1683 107.65 57.1786 107.638 57.1913C107.626 57.204 107.618 57.2189 107.612 57.2351C107.606 57.2512 107.604 57.2684 107.604 57.2856C107.605 57.3027 107.61 57.3195 107.617 57.335C107.626 57.3572 107.642 57.3761 107.662 57.3893C107.682 57.4025 107.705 57.4094 107.729 57.409C107.751 57.4107 107.772 57.4062 107.791 57.396Z" fill="#1F1F39"/>
<path d="M91.693 78.092L94.345 72.912L91.693 78.092Z" fill="#1F1F39"/>
<path d="M91.816 78.143L94.468 72.975C94.4774 72.9599 94.4833 72.9429 94.4852 72.9253C94.4871 72.9076 94.485 72.8898 94.479 72.873C94.473 72.8563 94.4634 72.8412 94.4507 72.8287C94.4381 72.8162 94.4228 72.8067 94.406 72.801C94.3909 72.7916 94.374 72.7858 94.3563 72.7839C94.3386 72.782 94.3208 72.7841 94.3041 72.79C94.2873 72.796 94.2722 72.8056 94.2597 72.8183C94.2472 72.8309 94.2378 72.8462 94.232 72.863L91.585 78.031C91.5756 78.0461 91.5698 78.0631 91.5679 78.0807C91.566 78.0984 91.5681 78.1162 91.5741 78.133C91.58 78.1497 91.5897 78.1648 91.6023 78.1773C91.6149 78.1898 91.6302 78.1992 91.647 78.205C91.659 78.217 91.672 78.217 91.697 78.217C91.7217 78.2166 91.7458 78.2095 91.7668 78.1965C91.7878 78.1835 91.8048 78.165 91.816 78.143Z" fill="#1F1F39"/>
<path d="M27.6539 67.758C19.1769 76.248 17.8379 82.668 15.9789 88.865C14.1199 95.062 13.5129 107.654 13.5129 107.654H39.0189L48.8469 57.545C48.8469 57.545 36.1309 59.268 27.6539 67.758Z" fill="#F9ACC0"/>
<path d="M85.6319 107.666L30.2809 107.666L30.9749 83.537L15.9909 83.537C15.9909 83.537 20.7579 68.687 31.9039 61.66C43.0499 54.633 55.3039 53.86 63.3349 55.96C78.0579 59.8 89.8579 68.823 89.8579 68.823L87.6019 91.095L81.6159 88.567L85.6319 107.666Z" fill="#F99A3D"/>
<path d="M41.4351 82.605L35.5981 64.572C35.5981 64.572 52.5651 67.881 63.5711 88.839C68.7021 98.593 68.7641 104.331 67.3631 107.665H30.2691L30.8641 86.918L41.4351 82.605Z" fill="#E88524"/>
<path d="M87.4531 91.031L81.7771 88.64L78.9631 79.531L87.4531 91.031Z" fill="#E88524"/>
<path d="M69.6589 65.712C69.6538 65.9228 69.6036 66.13 69.5117 66.3198C69.4197 66.5095 69.2882 66.6774 69.1259 66.812C68.8039 67.112 68.4069 67.295 68.0729 67.568C67.8923 67.6973 67.746 67.8687 67.6467 68.0674C67.5474 68.266 67.498 68.4859 67.5029 68.708C67.5188 68.9439 67.5988 69.1709 67.7341 69.3647C67.8694 69.5585 68.055 69.7118 68.2709 69.808C68.5059 69.92 68.2959 70.254 68.0709 70.155C67.8722 70.0625 67.6937 69.9316 67.5456 69.77C67.3975 69.6084 67.2828 69.4192 67.2079 69.2132C67.133 69.0072 67.0995 68.7884 67.1093 68.5694C67.1191 68.3504 67.172 68.1355 67.2649 67.937C67.4868 67.5356 67.8175 67.2049 68.2189 66.983C68.6048 66.7843 68.9333 66.4899 69.1729 66.128C69.4459 65.628 69.0989 65.161 68.7729 64.79C68.6039 64.609 68.8889 64.324 69.0499 64.522C69.3738 64.8442 69.587 65.2609 69.6589 65.712Z" fill="white"/>
<path d="M70.7959 78.267C70.4369 78.54 70.0149 78.726 69.6809 79.035C69.5032 79.1924 69.3825 79.4042 69.3376 79.6373C69.2928 79.8704 69.3263 80.1119 69.4329 80.324C69.7602 80.8651 70.2448 81.2935 70.8219 81.552C70.8679 81.5785 70.9015 81.6222 70.9153 81.6735C70.9291 81.7248 70.922 81.7795 70.8954 81.8255C70.8689 81.8715 70.8252 81.9051 70.7739 81.9189C70.7226 81.9327 70.6679 81.9255 70.6219 81.899C70.0945 81.6436 69.6299 81.2752 69.2609 80.82C69.0953 80.6071 68.9858 80.3559 68.9425 80.0896C68.8991 79.8234 68.9234 79.5505 69.0129 79.296C69.3969 78.396 70.5499 78.243 71.0329 77.425C71.1774 77.1844 71.2637 76.9134 71.2853 76.6336C71.3068 76.3538 71.2629 76.0729 71.1569 75.813C71.1342 75.7662 71.1291 75.7128 71.1427 75.6626C71.1563 75.6124 71.1877 75.5689 71.2309 75.54C71.2538 75.5247 71.2795 75.5143 71.3065 75.5094C71.3335 75.5045 71.3613 75.5052 71.388 75.5115C71.4148 75.5177 71.4399 75.5295 71.4619 75.5459C71.4839 75.5623 71.5023 75.5831 71.5159 75.607C71.7097 76.0672 71.7441 76.5789 71.6136 77.0609C71.4832 77.5429 71.1954 77.9674 70.7959 78.267Z" fill="white"/>
<path d="M85.0371 74.412C85.0953 74.0491 85.0786 73.6782 84.9881 73.322C84.7401 72.69 83.9351 72.653 83.3641 72.801C82.7441 72.975 82.0871 73.433 81.4311 73.16C81.1653 73.0206 80.9354 72.8218 80.7591 72.579C80.5829 72.3361 80.4652 72.0558 80.4151 71.76C80.3387 71.4277 80.3289 71.0837 80.3863 70.7476C80.4436 70.4115 80.5669 70.0901 80.7491 69.802C80.8851 69.591 81.2321 69.79 81.0961 70.002C80.9383 70.2473 80.8305 70.5214 80.779 70.8085C80.7276 71.0957 80.7333 71.3901 80.7961 71.675C80.9201 72.22 81.3041 72.902 81.9491 72.84C82.2852 72.7742 82.6111 72.6639 82.9181 72.512C83.2362 72.3843 83.5753 72.3165 83.9181 72.312C84.2206 72.3005 84.5197 72.3801 84.7765 72.5406C85.0332 72.701 85.2358 72.935 85.3581 73.212C85.4639 73.5902 85.4898 73.9863 85.4341 74.375C85.4 74.8016 85.3294 75.2245 85.2231 75.639C85.205 75.6842 85.171 75.7212 85.1275 75.7431C85.0841 75.7651 85.0341 75.7704 84.987 75.7581C84.9399 75.7459 84.8989 75.7168 84.8717 75.6765C84.8444 75.6362 84.8328 75.5873 84.8391 75.539C84.936 75.1694 85.0022 74.7925 85.0371 74.412Z" fill="white"/>
<path d="M77.8871 95.172C77.7509 95.1437 77.6097 95.1505 77.4768 95.1916C77.3439 95.2327 77.2236 95.3068 77.1271 95.407C76.8791 95.607 76.6561 95.828 76.4081 96.027C76.1509 96.2274 75.8773 96.4057 75.5901 96.56C75.0243 96.873 74.3802 97.016 73.7351 96.972C73.1628 96.908 72.6301 96.6484 72.2271 96.237C72.0014 96.0162 71.8319 95.7445 71.7327 95.4448C71.6335 95.145 71.6076 94.8258 71.6571 94.514C71.7071 94.266 72.0911 94.365 72.0411 94.626C72.0069 94.8963 72.042 95.1708 72.1431 95.4237C72.2442 95.6767 72.408 95.8998 72.6191 96.072C72.8401 96.2685 73.1 96.4164 73.3818 96.5062C73.6636 96.5959 73.9611 96.6255 74.2551 96.593C74.8989 96.5089 75.5097 96.2583 76.0271 95.866C76.5271 95.507 76.9441 94.912 77.5641 94.788C77.7151 94.7578 77.8713 94.7658 78.0185 94.8112C78.1657 94.8566 78.2993 94.938 78.4071 95.048C78.5164 95.1479 78.5891 95.2816 78.6138 95.4276C78.6384 95.5736 78.6135 95.7237 78.5431 95.854C78.5139 95.901 78.4677 95.9349 78.4141 95.9486C78.3605 95.9623 78.3037 95.9547 78.2556 95.9274C78.2075 95.9001 78.1718 95.8552 78.1561 95.8022C78.1403 95.7492 78.1457 95.6921 78.1711 95.643C78.2831 95.444 78.0601 95.246 77.8871 95.172Z" fill="white"/>
<path d="M63.7579 81.861C63.8071 82.1425 63.7877 82.4317 63.7013 82.7042C63.615 82.9766 63.4643 83.2242 63.2619 83.426C62.8619 83.835 62.3449 84.083 61.9109 84.455C61.5269 84.79 61.0559 85.355 61.3039 85.893C61.5269 86.401 62.2339 86.488 62.7169 86.426C62.7677 86.4142 62.8211 86.4215 62.8669 86.4466C62.9126 86.4717 62.9475 86.5128 62.9649 86.562C62.9899 86.649 62.9279 86.797 62.8289 86.81C62.5649 86.8624 62.2932 86.8619 62.0294 86.8087C61.7656 86.7555 61.5149 86.6506 61.2919 86.5C61.0749 86.3215 60.9264 86.0733 60.8717 85.7976C60.817 85.522 60.8595 85.2359 60.9919 84.988C61.2929 84.4475 61.7408 84.0034 62.2839 83.707C62.5429 83.5764 62.7729 83.395 62.9602 83.1735C63.1474 82.952 63.2882 82.6951 63.3739 82.418C63.3982 82.0732 63.3451 81.7272 63.2185 81.4056C63.0918 81.0839 62.8948 80.7947 62.6419 80.559C62.4679 80.385 62.7419 80.1 62.9149 80.286C63.344 80.7172 63.6371 81.2648 63.7579 81.861Z" fill="white"/>
<path d="M66.819 103.018C66.67 103.625 66.162 104.109 66.063 104.741C66.0238 105.01 66.0624 105.285 66.1744 105.533C66.2864 105.781 66.467 105.992 66.695 106.141C66.9682 106.307 67.2884 106.379 67.6065 106.346C67.9245 106.312 68.2226 106.175 68.455 105.955C68.641 105.781 68.926 106.055 68.74 106.24C68.5213 106.447 68.2567 106.598 67.9679 106.683C67.6792 106.767 67.3745 106.781 67.079 106.725C66.7877 106.662 66.517 106.526 66.2917 106.331C66.0665 106.136 65.8939 105.887 65.79 105.608C65.6856 105.319 65.6501 105.009 65.6866 104.703C65.7231 104.398 65.8304 104.105 66 103.848C66.179 103.573 66.3247 103.277 66.434 102.968C66.5063 102.707 66.4976 102.431 66.409 102.175C66.3146 101.887 66.1371 101.634 65.899 101.447C65.6609 101.261 65.3728 101.148 65.071 101.125C64.811 101.113 64.811 100.716 65.059 100.725C65.3323 100.742 65.5986 100.818 65.8403 100.947C66.0819 101.076 66.2931 101.255 66.4599 101.472C66.6266 101.689 66.7449 101.939 66.8068 102.206C66.8688 102.473 66.8729 102.75 66.819 103.018Z" fill="white"/>
<path d="M45.1041 61.858C45.0189 62.4252 44.785 62.9597 44.4261 63.407C44.2452 63.6332 44.0509 63.8482 43.8441 64.051C43.6489 64.2269 43.4999 64.4481 43.4101 64.695C43.3361 65.005 43.5961 65.166 43.8561 65.265C44.1963 65.3977 44.5618 65.4531 44.9261 65.427C45.1861 65.415 45.1861 65.811 44.9261 65.827C44.5999 65.8395 44.2737 65.8018 43.9591 65.715C43.6821 65.6533 43.4258 65.521 43.2151 65.331C42.7941 64.885 43.0911 64.315 43.4261 63.931C43.6121 63.72 43.8261 63.531 43.9961 63.324C44.1915 63.0993 44.356 62.8494 44.4851 62.581C44.7376 62.0997 44.8039 61.5421 44.6711 61.015C44.6086 60.7516 44.4797 60.5086 44.2968 60.3091C44.1139 60.1096 43.883 59.9601 43.6261 59.875C43.5979 59.8714 43.5708 59.8618 43.5467 59.8469C43.5225 59.832 43.5018 59.8121 43.4859 59.7886C43.47 59.765 43.4593 59.7384 43.4545 59.7104C43.4497 59.6824 43.451 59.6537 43.4581 59.6262C43.4653 59.5988 43.4782 59.5731 43.496 59.551C43.5139 59.5289 43.5362 59.5109 43.5615 59.4981C43.5869 59.4853 43.6147 59.4781 43.643 59.4768C43.6714 59.4756 43.6997 59.4804 43.7261 59.491C44.1959 59.6627 44.5909 59.9933 44.8426 60.4256C45.0942 60.8579 45.1867 61.3647 45.1041 61.858Z" fill="white"/>
<path d="M57.4989 69.542C56.8049 69.815 56.5989 70.542 56.3989 71.203C56.3328 71.5752 56.1838 71.9277 55.9629 72.2345C55.742 72.5412 55.4549 72.7943 55.1229 72.975C54.4132 73.29 53.6088 73.3165 52.8799 73.049C52.4732 72.8756 52.1068 72.6199 51.8039 72.2979C51.501 71.9758 51.2681 71.5945 51.1199 71.178C51.0329 70.943 51.4199 70.831 51.5039 71.066C51.6356 71.423 51.838 71.7497 52.099 72.0265C52.36 72.3034 52.6743 72.5246 53.0229 72.677C53.369 72.799 53.7382 72.8414 54.1029 72.801C54.4781 72.7859 54.844 72.6795 55.1689 72.491C55.8129 72.082 55.9369 71.264 56.1599 70.591C56.2465 70.2573 56.4124 69.9494 56.6434 69.6935C56.8744 69.4376 57.1638 69.2412 57.4869 69.121C57.8475 69.0009 58.2348 68.986 58.6035 69.0781C58.9723 69.1702 59.3071 69.3655 59.5689 69.641C59.7429 69.827 59.4569 70.112 59.2839 69.926C59.0595 69.6899 58.7691 69.5269 58.4507 69.4584C58.1322 69.3899 57.8005 69.419 57.4989 69.542Z" fill="white"/>
<path d="M23.5519 69.257C23.6954 69.45 23.7952 69.6718 23.8444 69.9072C23.8936 70.1425 23.891 70.3857 23.8369 70.62C23.7217 71.1164 23.6547 71.6227 23.6369 72.132C23.6511 72.3527 23.734 72.5634 23.8741 72.7345C24.0142 72.9056 24.2044 73.0286 24.4179 73.086C24.6603 73.1421 24.914 73.1221 25.1447 73.0289C25.3753 72.9357 25.5716 72.7737 25.7069 72.565C25.8569 72.355 26.1869 72.554 26.0549 72.764C25.9328 72.9594 25.7691 73.1255 25.5754 73.2504C25.3818 73.3753 25.163 73.456 24.9346 73.4868C24.7062 73.5175 24.4738 73.4976 24.254 73.4283C24.0342 73.359 23.8324 73.2421 23.6629 73.086C23.5005 72.904 23.3797 72.6887 23.3091 72.4552C23.2384 72.2217 23.2196 71.9755 23.2539 71.734C23.3707 71.2 23.4452 70.6577 23.4769 70.112C23.4519 69.678 23.0929 69.096 22.5769 69.257C22.3289 69.344 22.2179 68.957 22.4649 68.873C22.6638 68.8221 22.8733 68.8315 23.0668 68.8998C23.2603 68.9682 23.4292 69.0925 23.5519 69.257Z" fill="white"/>
<path d="M59.383 59.094C57.8763 59.7673 56.2588 60.1581 54.611 60.247C52.1925 60.5676 49.7441 59.9366 47.782 58.487C47.0524 57.8597 46.4615 57.0873 46.047 56.219C45.935 55.996 46.282 55.785 46.394 56.019C46.7455 56.7432 47.2191 57.4015 47.794 57.965C48.4908 58.6134 49.3193 59.1039 50.223 59.403C51.4486 59.7861 52.7324 59.9496 54.015 59.886C55.6172 59.8615 57.2027 59.5569 58.7 58.986C60.3126 58.3284 61.7388 57.2845 62.853 55.946C62.989 55.735 63.274 56.021 63.113 56.219C62.0983 57.4422 60.8242 58.4243 59.383 59.094Z" fill="white"/>
<path d="M87.553 73.21C87.367 74.499 87.169 75.775 86.995 77.064C86.846 78.155 86.71 79.245 86.586 80.348C86.45 81.6 86.313 82.839 86.202 84.091L85.719 89.333C85.694 89.606 85.669 89.866 85.645 90.139C85.62 90.387 85.224 90.399 85.245 90.139C85.406 88.305 85.567 86.471 85.745 84.649C85.869 83.349 85.993 82.049 86.145 80.749C86.269 79.649 86.405 78.543 86.554 77.449C86.728 76.185 86.901 74.933 87.087 73.669L87.863 68.463C87.9 68.191 87.937 67.93 87.987 67.658C87.999 67.546 88.135 67.496 88.234 67.521C88.2589 67.5269 88.2822 67.5378 88.3027 67.553C88.3232 67.5682 88.3404 67.5875 88.3533 67.6095C88.3661 67.6316 88.3743 67.6561 88.3773 67.6814C88.3804 67.7068 88.3782 67.7325 88.371 67.757C88.098 69.579 87.825 71.4 87.553 73.21Z" fill="white"/>
<path d="M80.5761 85.071C80.3531 84.959 80.5511 84.612 80.7761 84.724C82.4601 85.591 84.1331 86.459 85.8161 87.326C86.0391 87.45 85.8411 87.785 85.6161 87.673C83.9341 86.802 82.2611 85.938 80.5761 85.071Z" fill="white"/>
<path d="M23.1801 80.96H17.3671C17.3141 80.96 17.2632 80.9389 17.2257 80.9014C17.1882 80.8639 17.1671 80.813 17.1671 80.76C17.1671 80.7069 17.1882 80.6561 17.2257 80.6186C17.2632 80.5811 17.3141 80.56 17.3671 80.56H27.4311C27.4841 80.56 27.535 80.5811 27.5725 80.6186C27.61 80.6561 27.6311 80.7069 27.6311 80.76C27.6311 80.813 27.61 80.8639 27.5725 80.9014C27.535 80.9389 27.4841 80.96 27.4311 80.96H23.1801Z" fill="white"/>
<path d="M16.3 99.82L21.741 97.304C21.7568 97.297 21.7711 97.2869 21.7829 97.2742C21.7946 97.2616 21.8037 97.2466 21.8095 97.2304C21.8153 97.2141 21.8177 97.1968 21.8166 97.1795C21.8155 97.1622 21.8109 97.1454 21.803 97.13C21.796 97.1142 21.7859 97.0999 21.7733 97.0881C21.7606 97.0763 21.7457 97.0673 21.7294 97.0615C21.7131 97.0557 21.6958 97.0533 21.6785 97.0544C21.6613 97.0555 21.6444 97.0601 21.629 97.068L16.189 99.585C16.1738 99.592 16.1602 99.6019 16.1488 99.6142C16.1375 99.6265 16.1287 99.6409 16.1229 99.6566C16.1171 99.6723 16.1145 99.689 16.1152 99.7057C16.1159 99.7224 16.1199 99.7388 16.127 99.754C16.1386 99.7767 16.1564 99.7957 16.1784 99.8088C16.2003 99.8219 16.2255 99.8285 16.251 99.828C16.276 99.833 16.288 99.833 16.3 99.82Z" fill="#1F1F39"/>
<path d="M47.6089 107.615C46.5898 107.614 45.5715 107.56 44.5579 107.454C41.0935 106.972 37.7302 105.931 34.5989 104.373C30.6958 102.598 27.2891 99.8898 24.6789 96.488C22.3219 93.3811 20.9503 89.6391 20.7409 85.745C20.648 83.7671 21.0502 81.7972 21.9109 80.014C23.1109 77.769 25.1909 77.114 27.0289 76.533C28.1215 76.3197 29.134 75.8089 29.9549 75.057C30.6479 74.225 30.2669 73.044 29.8249 71.677C29.2749 69.977 28.6509 68.043 29.8559 66.159C30.6839 64.851 32.5309 64.188 35.3499 64.188C37.0069 64.188 39.4859 65.115 42.5199 66.868C45.0853 68.3732 47.5327 70.0711 49.8409 71.947C53.5999 75.007 61.9409 85.147 62.2589 95.347C62.378 96.8483 62.185 98.3579 61.6919 99.7809C61.1988 101.204 60.4164 102.509 59.3939 103.615C57.9512 105.045 56.1767 106.096 54.2289 106.673C52.0841 107.327 49.8509 107.645 47.6089 107.615ZM35.5969 75.38C35.0134 75.38 34.4431 75.553 33.958 75.8772C33.4728 76.2013 33.0947 76.662 32.8714 77.2011C32.6482 77.7401 32.5897 78.3333 32.7036 78.9055C32.8174 79.4777 33.0984 80.0034 33.5109 80.416C33.9235 80.8285 34.4491 81.1095 35.0214 81.2233C35.5936 81.3371 36.1868 81.2787 36.7258 81.0554C37.2648 80.8322 37.7256 80.454 38.0497 79.9689C38.3739 79.4838 38.5469 78.9134 38.5469 78.33C38.5461 77.5478 38.235 76.798 37.682 76.2449C37.1289 75.6918 36.379 75.3808 35.5969 75.38Z" fill="white"/>
<path d="M51.7121 82.208C51.1911 80.547 49.4321 79.928 48.5021 81.278C48.1652 81.7845 48.0376 82.4018 48.1461 83.0003C48.2546 83.5988 48.5908 84.1321 49.0841 84.488C49.553 84.7959 50.1107 84.9397 50.6701 84.897C51.0976 84.6089 51.4266 84.1967 51.6129 83.716C51.7992 83.2352 51.8338 82.709 51.7121 82.208Z" fill="#F99A3D"/>
<path d="M53.151 90.797C52.011 90.697 51.701 90.797 51.391 91.627C51.081 92.457 52.106 93.288 53.358 93.387C53.9116 93.43 54.4627 93.2776 54.9155 92.9562C55.3683 92.6348 55.694 92.1648 55.836 91.628C56.151 90.586 55.836 89.769 54.808 89.967C54.6353 90.2448 54.3891 90.4694 54.0967 90.6159C53.8042 90.7624 53.4769 90.8251 53.151 90.797Z" fill="#3C82F5"/>
<path d="M46.108 97.416C43.939 97.825 40.519 96.895 40.308 95.445C40.097 93.995 40.928 94.094 42.068 93.896C43.2782 93.6714 44.3948 93.0934 45.277 92.235C45.5339 91.9846 45.8519 91.8059 46.1994 91.7165C46.5468 91.6271 46.9116 91.6302 47.2575 91.7255C47.6033 91.8207 47.9183 92.0048 48.171 92.2594C48.4237 92.5141 48.6054 92.8304 48.698 93.177C48.8799 93.6246 48.9543 94.1087 48.9151 94.5903C48.8759 95.0719 48.7243 95.5376 48.4724 95.9499C48.2204 96.3622 47.8753 96.7096 47.4646 96.9643C47.054 97.2189 46.5893 97.3736 46.108 97.416Z" fill="#BEE3C5"/>
<path d="M33.59 90.277C30.38 89.756 30.479 88.306 31.111 87.897C31.743 87.488 33.391 87.897 33.8 87.376C34.209 86.855 36.788 85.617 37.42 87.799C38.052 89.981 36.8 90.798 33.59 90.277Z" fill="#DA5742"/>
<path d="M46.802 21.863C42.861 23.536 41.832 26.063 40.382 30.65C38.932 35.237 39.229 37.739 37.395 41.296C36.4818 43.2809 34.8659 44.8572 32.859 45.721C32.859 45.721 36.391 50.641 53.792 49.873C70.833 49.129 76.522 38.979 76.522 38.979C76.522 38.979 70.635 37.814 68.689 33.786C66.743 29.758 64.401 22.557 59.468 21.541C54.535 20.525 53.147 23.499 53.147 23.499C52.4269 22.5532 51.4093 21.8774 50.2582 21.5806C49.1071 21.2838 47.8896 21.3833 46.802 21.863Z" fill="#1F1F39"/>
<path d="M64.426 43.911C63.9957 45.1242 63.2808 46.2166 62.3413 47.0965C61.4017 47.9764 60.2648 48.6182 59.026 48.968C59.026 48.968 59.226 51.744 59.646 54.099L60.067 56.454C59.4392 57.3288 58.602 58.0322 57.6321 58.4998C56.6621 58.9675 55.5904 59.1845 54.515 59.131C50.636 59.069 48.851 57.545 48.851 57.545C48.851 57.545 48.863 54.335 48.566 50.766C48.269 47.197 47.798 44.445 47.798 44.445C47.798 44.445 42.023 44.21 41.49 39.735C41.019 35.881 44.898 35.856 45.877 36.265C46.856 36.674 46.877 36.81 46.877 36.81C47.1344 37.7316 47.4658 38.6308 47.868 39.499C48.0659 39.9878 48.395 40.4125 48.819 40.726C48.3516 39.2862 48.0825 37.7894 48.019 36.277C48.0165 35.2645 48.1668 34.2575 48.465 33.29L49.541 35.558L56.358 34.467L56.506 31.245L57.969 34.545L64.525 33.615C64.525 33.615 65.925 39.722 64.426 43.911Z" fill="#F9D2DD"/>
<path d="M47.7939 44.444C47.3943 44.4154 46.9968 44.3616 46.6039 44.283C46.5116 43.6088 46.378 42.9409 46.2039 42.283C45.802 41.0135 45.3146 39.7726 44.7449 38.569C45.7092 39.1351 46.4916 39.965 46.9999 40.961C47.4123 42.0702 47.6792 43.2282 47.7939 44.406C47.8552 44.6967 47.9006 44.9904 47.9299 45.286C47.8559 44.753 47.7939 44.444 47.7939 44.444Z" fill="#F9ACC0"/>
<path d="M47.5699 42.201C47.5867 42.1951 47.6021 42.1858 47.6151 42.1736C47.628 42.1614 47.6383 42.1467 47.6453 42.1303C47.6523 42.1139 47.6557 42.0963 47.6555 42.0785C47.6553 42.0607 47.6513 42.0432 47.6439 42.027C47.316 41.107 46.8434 40.2451 46.2439 39.474C45.8696 39.0188 45.4003 38.6509 44.8689 38.396C44.836 38.3839 44.7996 38.3848 44.7673 38.3985C44.7349 38.4123 44.7091 38.4378 44.6949 38.47C44.6828 38.503 44.6837 38.5393 44.6974 38.5717C44.7112 38.604 44.7368 38.6299 44.7689 38.644C45.2594 38.8851 45.6942 39.2257 46.0459 39.644C46.6207 40.3908 47.0724 41.2246 47.3839 42.114C47.3933 42.1428 47.4115 42.1679 47.4359 42.1858C47.4603 42.2038 47.4897 42.2136 47.5199 42.214C47.5375 42.2144 47.5548 42.2099 47.5699 42.201Z" fill="#1F1F39"/>
<path d="M62.4908 35.868C62.2786 35.7207 62.0187 35.6585 61.7628 35.694C61.5078 35.713 61.2632 35.803 61.0568 35.954C60.9558 36.0302 60.8748 36.1298 60.8208 36.2443C60.7668 36.3587 60.7414 36.4846 60.7468 36.611C60.8263 36.4073 60.9731 36.2368 61.1628 36.128C61.3526 36.0329 61.5584 35.9739 61.7698 35.954C61.9772 35.9318 62.1869 35.9617 62.3798 36.041C62.5796 36.1411 62.7471 36.2957 62.8628 36.487C62.8474 36.3636 62.8064 36.2447 62.7423 36.1381C62.6782 36.0315 62.5926 35.9395 62.4908 35.868Z" fill="#1F1F39"/>
<path d="M54.312 36.525C54.0898 36.4027 53.8316 36.363 53.583 36.413C53.4562 36.4299 53.3341 36.4721 53.224 36.537C53.1128 36.599 53.0157 36.6834 52.939 36.785C52.7819 36.9729 52.6943 37.2091 52.691 37.454C52.7892 37.256 52.925 37.079 53.091 36.933C53.1625 36.8639 53.2467 36.8092 53.339 36.772C53.389 36.76 53.426 36.735 53.475 36.722L53.624 36.685C53.8244 36.6491 54.0306 36.6621 54.225 36.723C54.4386 36.7804 54.6318 36.8965 54.783 37.058C54.7015 36.8257 54.5324 36.6345 54.312 36.525Z" fill="#1F1F39"/>
<path d="M58.6009 38.606C58.7325 38.8921 58.8244 39.1949 58.8739 39.506C58.8843 39.5815 58.8884 39.6578 58.8859 39.734C58.8797 39.8055 58.8663 39.8762 58.8459 39.945C58.8137 40.0761 58.7343 40.1907 58.6229 40.267C58.4951 40.345 58.3524 40.3951 58.2039 40.414C58.0444 40.4408 57.8823 40.4492 57.7209 40.439C57.8794 40.5048 58.0493 40.5387 58.2209 40.539C58.401 40.5438 58.5797 40.5054 58.7419 40.427C58.9122 40.3348 59.0394 40.1792 59.0959 39.994C59.1244 39.9059 59.1413 39.8145 59.1459 39.722C59.1481 39.6308 59.1441 39.5396 59.1339 39.449C59.0764 39.1128 58.9588 38.7896 58.7869 38.495C58.6262 38.2112 58.4303 37.9488 58.2039 37.714C58.3399 38.014 58.4769 38.309 58.6009 38.606Z" fill="#1F1F39"/>
<path d="M62.4717 38.8815C62.5259 38.6304 62.4795 38.3681 62.3425 38.1508C62.2055 37.9335 61.9888 37.7786 61.7389 37.7192C61.4819 37.7171 61.2343 37.8158 61.0493 37.9942C60.8643 38.1726 60.7565 38.4164 60.7493 38.6733C60.6951 38.9246 60.7417 39.1871 60.8789 39.4044C61.0161 39.6217 61.233 39.7766 61.4831 39.8358C61.74 39.8376 61.9873 39.7387 62.1721 39.5604C62.3569 39.382 62.4645 39.1383 62.4717 38.8815Z" fill="#1F1F39"/>
<path d="M54.6539 39.4185C54.708 39.1674 54.6616 38.9051 54.5246 38.6878C54.3876 38.4705 54.1709 38.3156 53.921 38.2562C53.664 38.2541 53.4164 38.3528 53.2314 38.5312C53.0464 38.7096 52.9387 38.9534 52.9314 39.2104C52.8773 39.4616 52.9238 39.7241 53.061 39.9414C53.1982 40.1587 53.4151 40.3136 53.6652 40.3728C53.9221 40.3746 54.1694 40.2757 54.3543 40.0974C54.5391 39.919 54.6466 39.6753 54.6539 39.4185Z" fill="#1F1F39"/>
<path d="M59.0469 49.104C59.0469 49.104 59.2169 51.583 59.6169 53.875C58.4375 53.9819 57.2526 53.7406 56.2089 53.181C52.5029 51.604 52.1439 49.404 52.1439 49.404C54.4031 50.1593 56.8618 50.0525 59.0469 49.104Z" fill="#F9ACC0"/>
<path d="M57.2119 42.56C56.9896 42.5285 56.7728 42.4659 56.5679 42.374C56.3594 42.2784 56.1602 42.1635 55.9729 42.031C55.7729 41.882 55.5639 41.721 55.3289 41.531C55.3285 41.8361 55.4206 42.1342 55.5929 42.386C55.7693 42.6504 56.0192 42.8572 56.3119 42.981C56.4634 43.0411 56.6215 43.0827 56.7829 43.105C56.9448 43.1235 57.1087 43.111 57.2659 43.068C57.4162 43.0352 57.5582 42.9721 57.6832 42.8825C57.8082 42.7929 57.9136 42.6787 57.9929 42.547C57.734 42.5819 57.4719 42.5863 57.2119 42.56Z" fill="#DA5742"/>
<path d="M56.0718 49.86C57.1474 49.7668 58.2081 49.5462 59.2318 49.203C59.2486 49.1971 59.264 49.1878 59.2769 49.1756C59.2899 49.1634 59.3002 49.1487 59.3072 49.1323C59.3141 49.116 59.3176 49.0983 59.3174 49.0805C59.3171 49.0627 59.3132 49.0452 59.3058 49.029C59.2999 49.0122 59.2906 48.9968 59.2784 48.9839C59.2662 48.9709 59.2515 48.9606 59.2351 48.9536C59.2187 48.9467 59.2011 48.9432 59.1833 48.9434C59.1655 48.9437 59.148 48.9476 59.1318 48.955C58.1234 49.2736 57.0844 49.4855 56.0318 49.587C54.7833 49.7323 53.5183 49.6186 52.3158 49.253C52.2828 49.2409 52.2465 49.2418 52.2141 49.2555C52.1818 49.2693 52.1559 49.2948 52.1418 49.327C52.1297 49.36 52.1306 49.3963 52.1443 49.4287C52.1581 49.461 52.1836 49.4869 52.2158 49.501C53.1089 49.7889 54.0425 49.9311 54.9808 49.922C55.3278 49.922 55.6878 49.897 56.0718 49.86Z" fill="#1F1F39"/>
<path d="M53.9665 42.9792C54.0714 42.1095 53.0058 41.2657 51.5851 41.0943C50.1645 40.9229 48.9287 41.4889 48.8238 42.3586C48.7188 43.2283 49.7853 44.0731 51.205 44.2444C52.6247 44.4158 53.8614 43.8499 53.9665 42.9792Z" fill="#F9ACC0"/>
<path d="M62.939 39.821C63.6833 39.7044 64.445 39.8489 65.095 40.23C65.0605 40.9835 64.9693 41.7333 64.822 42.473C64.3585 42.7449 63.8436 42.9179 63.31 42.981C61.895 43.142 60.658 42.572 60.559 41.705C60.46 40.838 61.513 39.982 62.939 39.821Z" fill="#F9ACC0"/>
<path d="M31.8909 94.329C33.7509 94.463 33.8739 96.647 33.8739 96.647C34.6761 96.4198 35.5355 96.5179 36.2659 96.92C37.3319 97.602 37.0589 99.647 37.0589 99.647C37.4958 99.7545 37.897 99.9745 38.2224 100.285C38.5479 100.596 38.7863 100.986 38.9139 101.418C39.5709 103.054 36.8069 106.251 31.4899 107.454C26.1729 108.657 22.4719 106.475 21.0139 103.463C19.5559 100.451 20.0839 98.406 19.0309 95.531C18.4371 94.1496 17.5825 92.8957 16.5139 91.838C16.3322 91.5439 16.2349 91.2055 16.2324 90.8598C16.23 90.5141 16.3226 90.1744 16.5001 89.8777C16.6775 89.5811 16.9331 89.3389 17.2389 89.1776C17.5446 89.0162 17.8888 88.942 18.2339 88.963C20.4899 88.963 22.8689 90.735 24.3339 92.52C25.2092 93.5959 25.8006 94.8743 26.0539 96.238C26.0539 96.238 30.0319 94.193 31.8909 94.329Z" fill="#F9D2DD"/>
<path d="M31.557 102.509L37.122 99.906C37.1375 99.8987 37.1515 99.8884 37.163 99.8757C37.1746 99.863 37.1835 99.8481 37.1892 99.8319C37.195 99.8157 37.1975 99.7986 37.1966 99.7814C37.1957 99.7643 37.1914 99.7475 37.184 99.732C37.1767 99.7164 37.1664 99.7025 37.1537 99.6909C37.1409 99.6794 37.1261 99.6705 37.1099 99.6647C37.0937 99.6589 37.0765 99.6564 37.0594 99.6573C37.0422 99.6583 37.0254 99.6625 37.01 99.67L31.445 102.27C31.4294 102.277 31.4155 102.288 31.4039 102.3C31.3924 102.313 31.3834 102.328 31.3777 102.344C31.3719 102.36 31.3694 102.377 31.3703 102.395C31.3712 102.412 31.3755 102.429 31.383 102.444C31.3926 102.467 31.4087 102.486 31.4294 102.5C31.45 102.514 31.4742 102.521 31.499 102.521C31.519 102.522 31.5391 102.518 31.557 102.509Z" fill="#1F1F39"/>
<path d="M28.2359 99.225L33.7999 96.622C33.8155 96.6147 33.8294 96.6044 33.841 96.5917C33.8525 96.579 33.8614 96.5641 33.8672 96.5479C33.873 96.5317 33.8755 96.5146 33.8746 96.4974C33.8737 96.4803 33.8694 96.4635 33.8619 96.448C33.8546 96.4324 33.8443 96.4185 33.8316 96.4069C33.8189 96.3954 33.804 96.3865 33.7879 96.3807C33.7717 96.375 33.7545 96.3724 33.7374 96.3734C33.7202 96.3743 33.7034 96.3786 33.6879 96.386L28.1229 98.986C28.1074 98.9933 28.0934 99.0036 28.0819 99.0163C28.0703 99.029 28.0614 99.0439 28.0557 99.0601C28.0499 99.0762 28.0474 99.0934 28.0483 99.1106C28.0492 99.1277 28.0535 99.1445 28.0609 99.16C28.0681 99.1844 28.0836 99.2056 28.1049 99.2197C28.1261 99.2338 28.1516 99.2399 28.1769 99.237C28.1973 99.2385 28.2177 99.2343 28.2359 99.225Z" fill="#1F1F39"/>
<path d="M24.9889 91.182C25.5553 92.7396 25.9987 94.3391 26.3149 95.966L22.5969 98.432L20.7379 89.645C20.7629 89.645 20.7749 89.645 20.7879 89.657L24.9889 91.182Z" fill="#F9ACC0"/>
<path d="M78.6919 78.626L81.6169 88.566L78.6919 78.626Z" fill="#1F1F39"/>
<path d="M81.654 88.708C81.6706 88.7035 81.686 88.6958 81.6995 88.6851C81.7129 88.6745 81.724 88.6613 81.7322 88.6462C81.7403 88.6311 81.7453 88.6146 81.7468 88.5975C81.7483 88.5804 81.7464 88.5633 81.741 88.547L78.828 78.602C78.8236 78.5854 78.8158 78.57 78.8052 78.5565C78.7946 78.5431 78.7813 78.532 78.7662 78.5238C78.7512 78.5157 78.7346 78.5107 78.7175 78.5092C78.7005 78.5077 78.6833 78.5096 78.667 78.515C78.6505 78.5194 78.635 78.5272 78.6216 78.5378C78.6082 78.5484 78.597 78.5617 78.5889 78.5768C78.5807 78.5918 78.5758 78.6084 78.5742 78.6255C78.5727 78.6425 78.5747 78.6597 78.58 78.676L81.492 88.616C81.4991 88.6432 81.5152 88.6671 81.5378 88.6839C81.5603 88.7006 81.588 88.7091 81.616 88.708H81.654Z" fill="#1F1F39"/>
<path d="M83.2429 60.618C83.2356 60.5928 83.2332 60.5664 83.2361 60.5403C83.239 60.5141 83.2469 60.4889 83.2596 60.4658C83.2722 60.4428 83.2892 60.4225 83.3097 60.406C83.3302 60.3896 83.3537 60.3773 83.3789 60.37C83.4293 60.3593 83.4818 60.3673 83.5267 60.3925C83.5716 60.4177 83.6058 60.4584 83.6229 60.507C83.7229 60.792 83.8339 61.077 83.9329 61.35C83.9403 61.3752 83.9426 61.4016 83.9397 61.4277C83.9369 61.4538 83.9289 61.4791 83.9163 61.5022C83.9037 61.5252 83.8866 61.5455 83.8661 61.5619C83.8457 61.5784 83.8221 61.5906 83.7969 61.598C83.7719 61.6066 83.7454 61.6099 83.7191 61.6077C83.6928 61.6056 83.6672 61.5981 83.6439 61.5856C83.6206 61.5731 83.6002 61.5559 83.5838 61.5352C83.5675 61.5144 83.5556 61.4905 83.5489 61.465C83.4499 61.176 83.3429 60.891 83.2429 60.618Z" fill="white"/>
<path d="M47.6089 107.987C46.5898 107.986 45.5715 107.932 44.5579 107.826C41.0935 107.344 37.7302 106.303 34.5989 104.745C30.6958 102.97 27.2891 100.262 24.6789 96.86C22.3219 93.7531 20.9503 90.0111 20.7409 86.117C20.648 84.1391 21.0502 82.1692 21.9109 80.386C23.1109 78.141 25.1909 77.486 27.0289 76.905C28.1215 76.6917 29.134 76.181 29.9549 75.429C30.6479 74.597 30.2669 73.416 29.8249 72.049C29.2749 70.349 28.6509 68.415 29.8559 66.531C30.6839 65.223 32.5309 64.56 35.3499 64.56C37.0069 64.56 39.4859 65.487 42.5199 67.24C45.0853 68.7452 47.5327 70.4431 49.8409 72.319C53.5999 75.379 61.9409 85.519 62.2589 95.719C62.378 97.2203 62.185 98.7299 61.6919 100.153C61.1988 101.576 60.4164 102.881 59.3939 103.987C57.9512 105.417 56.1767 106.468 54.2289 107.045C52.0841 107.699 49.8509 108.017 47.6089 107.987ZM35.5969 75.752C35.0134 75.752 34.4431 75.925 33.958 76.2492C33.4728 76.5733 33.0947 77.034 32.8714 77.5731C32.6482 78.1121 32.5897 78.7053 32.7036 79.2775C32.8174 79.8498 33.0984 80.3754 33.5109 80.788C33.9235 81.2005 34.4491 81.4815 35.0214 81.5953C35.5936 81.7091 36.1868 81.6507 36.7258 81.4274C37.2648 81.2042 37.7256 80.8261 38.0497 80.3409C38.3739 79.8558 38.5469 79.2855 38.5469 78.702C38.5461 77.9199 38.235 77.17 37.682 76.6169C37.1289 76.0638 36.379 75.7528 35.5969 75.752Z" fill="white"/>
<path d="M47.6089 107.987C46.5898 107.986 45.5715 107.932 44.5579 107.826C41.0935 107.344 37.7302 106.303 34.5989 104.745C30.6958 102.97 27.2891 100.262 24.6789 96.86C22.3219 93.7531 20.9503 90.0111 20.7409 86.117C20.648 84.1391 21.0502 82.1692 21.9109 80.386C23.1109 78.141 25.1909 77.486 27.0289 76.905C28.1215 76.6917 29.134 76.181 29.9549 75.429C30.6479 74.597 30.2669 73.416 29.8249 72.049C29.2749 70.349 28.6509 68.415 29.8559 66.531C30.6839 65.223 32.5309 64.56 35.3499 64.56C37.0069 64.56 39.4859 65.487 42.5199 67.24C45.0853 68.7452 47.5327 70.4431 49.8409 72.319C53.5999 75.379 61.9409 85.519 62.2589 95.719C62.378 97.2203 62.185 98.7299 61.6919 100.153C61.1988 101.576 60.4164 102.881 59.3939 103.987C57.9512 105.417 56.1767 106.468 54.2289 107.045C52.0841 107.699 49.8509 108.017 47.6089 107.987ZM35.5969 75.752C35.0134 75.752 34.4431 75.925 33.958 76.2492C33.4728 76.5733 33.0947 77.034 32.8714 77.5731C32.6482 78.1121 32.5897 78.7053 32.7036 79.2775C32.8174 79.8498 33.0984 80.3754 33.5109 80.788C33.9235 81.2005 34.4491 81.4815 35.0214 81.5953C35.5936 81.7091 36.1868 81.6507 36.7258 81.4274C37.2648 81.2042 37.7256 80.8261 38.0497 80.3409C38.3739 79.8558 38.5469 79.2855 38.5469 78.702C38.5461 77.9199 38.235 77.17 37.682 76.6169C37.1289 76.0638 36.379 75.7528 35.5969 75.752Z" fill="white"/>
<path d="M51.7118 82.58C51.1908 80.919 49.4318 80.3 48.5018 81.65C48.1649 82.1565 48.0373 82.7738 48.1458 83.3723C48.2544 83.9708 48.5905 84.5041 49.0838 84.86C49.5528 85.1679 50.1105 85.3117 50.6698 85.269C51.0974 84.9809 51.4264 84.5687 51.6127 84.088C51.799 83.6072 51.8336 83.081 51.7118 82.58Z" fill="white"/>
<path d="M53.1508 91.169C52.0108 91.069 51.7008 91.169 51.3908 91.999C51.0808 92.829 52.1058 93.66 53.3578 93.759C53.9114 93.802 54.4625 93.6496 54.9153 93.3282C55.368 93.0068 55.6938 92.5368 55.8358 92C56.1508 90.958 55.8358 90.141 54.8078 90.339C54.6351 90.6168 54.3889 90.8414 54.0964 90.9879C53.804 91.1344 53.4767 91.1971 53.1508 91.169Z" fill="white"/>
<path d="M46.108 97.787C43.939 98.196 40.519 97.266 40.308 95.816C40.097 94.366 40.928 94.465 42.068 94.267C43.2782 94.0424 44.3948 93.4644 45.277 92.606C45.5339 92.3557 45.8519 92.1769 46.1994 92.0876C46.5468 91.9982 46.9116 92.0012 47.2575 92.0965C47.6033 92.1917 47.9183 92.3758 48.171 92.6304C48.4237 92.8851 48.6054 93.2014 48.698 93.548C48.8799 93.9956 48.9543 94.4797 48.9151 94.9613C48.8759 95.4429 48.7243 95.9086 48.4724 96.3209C48.2204 96.7332 47.8753 97.0807 47.4646 97.3353C47.054 97.5899 46.5893 97.7447 46.108 97.787Z" fill="white"/>
<path d="M33.59 90.648C30.38 90.127 30.479 88.677 31.111 88.268C31.743 87.859 33.391 88.268 33.8 87.747C34.209 87.226 36.788 85.988 37.42 88.17C38.052 90.352 36.8 91.169 33.59 90.648Z" fill="white"/>
<path d="M159.787 74.947V98.862H100.651C99.0808 98.862 97.5259 98.5527 96.0751 97.9517C94.6244 97.3508 93.3062 96.4699 92.1959 95.3595C91.0855 94.2491 90.2048 92.9308 89.604 91.48C89.0031 90.0292 88.694 88.4743 88.6941 86.904C88.6941 83.7328 89.9538 80.6915 92.1962 78.4491C94.4386 76.2067 97.4799 74.947 100.651 74.947H159.787Z" fill="#F8F2FF"/>
<path d="M99.697 89.019V85.841H101.461C102.707 85.841 103.267 86.429 103.267 87.437C103.267 88.417 102.707 89.019 101.461 89.019H99.697ZM104.905 87.437C104.905 85.855 103.771 84.539 101.461 84.539H98.101V94.269H99.697V90.321H101.461C103.995 90.321 104.905 88.823 104.905 87.437ZM105.895 90.377C105.895 92.757 107.505 94.395 109.507 94.395C110.795 94.395 111.719 93.779 112.209 93.121V94.269H113.819V86.555H112.209V87.675C111.733 87.045 110.837 86.429 109.535 86.429C107.505 86.429 105.895 87.997 105.895 90.377ZM112.209 90.405C112.209 92.071 111.075 93.009 109.871 93.009C108.681 93.009 107.533 92.043 107.533 90.377C107.533 88.711 108.681 87.815 109.871 87.815C111.075 87.815 112.209 88.753 112.209 90.405ZM115.915 94.269H117.511V86.555H115.915V94.269ZM116.727 85.533C117.287 85.533 117.735 85.085 117.735 84.511C117.735 83.937 117.287 83.489 116.727 83.489C116.153 83.489 115.705 83.937 115.705 84.511C115.705 85.085 116.153 85.533 116.727 85.533ZM125.081 94.269H126.663V89.719C126.663 87.563 125.305 86.429 123.499 86.429C122.575 86.429 121.721 86.807 121.203 87.437V86.555H119.607V94.269H121.203V89.957C121.203 88.543 121.973 87.815 123.149 87.815C124.311 87.815 125.081 88.543 125.081 89.957V94.269ZM128.951 92.127C128.951 93.695 129.805 94.269 131.177 94.269H132.437V92.939H131.457C130.785 92.939 130.561 92.701 130.561 92.127V87.857H132.437V86.555H130.561V84.637H128.951V86.555H128.041V87.857H128.951V92.127ZM133.908 94.269H135.504V86.555H133.908V94.269ZM134.72 85.533C135.28 85.533 135.728 85.085 135.728 84.511C135.728 83.937 135.28 83.489 134.72 83.489C134.146 83.489 133.698 83.937 133.698 84.511C133.698 85.085 134.146 85.533 134.72 85.533ZM143.073 94.269H144.655V89.719C144.655 87.563 143.297 86.429 141.491 86.429C140.567 86.429 139.713 86.807 139.195 87.437V86.555H137.599V94.269H139.195V89.957C139.195 88.543 139.965 87.815 141.141 87.815C142.303 87.815 143.073 88.543 143.073 89.957V94.269ZM146.159 90.377C146.159 92.757 147.769 94.395 149.799 94.395C151.059 94.395 151.983 93.765 152.473 93.107V94.395C152.473 95.935 151.549 96.691 150.317 96.691C149.211 96.691 148.357 96.145 148.119 95.347H146.537C146.733 97.055 148.259 98.077 150.317 98.077C152.725 98.077 154.083 96.495 154.083 94.395V86.555H152.473V87.675C151.997 87.017 151.059 86.429 149.799 86.429C147.769 86.429 146.159 87.997 146.159 90.377ZM152.473 90.405C152.473 92.071 151.339 93.009 150.135 93.009C148.945 93.009 147.797 92.043 147.797 90.377C147.797 88.711 148.945 87.815 150.135 87.815C151.339 87.815 152.473 88.753 152.473 90.405Z" fill="#9065BE"/>
</svg>
