<svg width="22" height="22" viewBox="0 0 22 22" fill="none" xmlns="http://www.w3.org/2000/svg">
<path d="M12.0999 2.25602L19.0999 7.50602C19.3483 7.69231 19.5499 7.93388 19.6888 8.21159C19.8276 8.4893 19.8999 8.79553 19.8999 9.10602V18.606C19.8999 19.1365 19.6892 19.6452 19.3141 20.0202C18.939 20.3953 18.4303 20.606 17.8999 20.606H3.8999C3.36947 20.606 2.86076 20.3953 2.48569 20.0202C2.11062 19.6452 1.8999 19.1365 1.8999 18.606V9.10602C1.8999 8.79553 1.97219 8.4893 2.11105 8.21159C2.2499 7.93388 2.45151 7.69231 2.6999 7.50602L9.6999 2.25602C10.0461 1.99637 10.4672 1.85602 10.8999 1.85602C11.3326 1.85602 11.7537 1.99637 12.0999 2.25602Z" fill="#F4F3FD"/>
</svg>
