<svg width="36" height="50" viewBox="0 0 36 50" fill="none" xmlns="http://www.w3.org/2000/svg">
<path d="M18 36C14.4399 36 10.9598 34.9443 7.99974 32.9665C5.03966 30.9886 2.73255 28.1774 1.37018 24.8883C0.00779915 21.5992 -0.348661 17.98 0.345873 14.4884C1.04041 10.9967 2.75474 7.78943 5.27209 5.27209C7.78943 2.75474 10.9967 1.04041 14.4884 0.345873C17.98 -0.348661 21.5992 0.00779915 24.8883 1.37018C28.1774 2.73255 30.9886 5.03966 32.9665 7.99974C34.9443 10.9598 36 14.4399 36 18C36 22.7739 34.1036 27.3523 30.7279 30.7279C27.3523 34.1036 22.7739 36 18 36Z" fill="#FFEBF0"/>
<path d="M20.2 14.01C20.5167 13.8491 20.8762 13.7927 21.227 13.849C21.5563 13.8727 21.8735 13.9835 22.146 14.17" fill="white"/>
<path d="M17.0759 14.01C16.7592 13.8491 16.3996 13.7927 16.0489 13.849C15.7194 13.873 15.4023 13.9841 15.1299 14.171" fill="white"/>
<path d="M27.0381 40.297L29.6711 47.331C31.9597 46.2486 34.0892 44.8576 36.0001 43.197C35.5381 41.841 35.1381 40.815 35.1381 40.815L27.0381 40.297Z" fill="#DA5742"/>
<path d="M6.356 47.465L9.1 40.11L1 40.628C1 40.637 0.518 41.877 0 43.431C1.92373 45.0607 4.06243 46.4181 6.356 47.465Z" fill="#DA5742"/>
<path d="M27.0381 40.297L27.9481 42.689L35.9821 43.189C35.5451 41.931 35.1381 40.815 35.1381 40.815L27.0381 40.297Z" fill="#C43D28"/>
<path d="M9.18497 39.851L8.27497 42.243L0.115967 43.038C0.552967 41.788 1.08897 40.369 1.08897 40.369L9.18497 39.851Z" fill="#C43D28"/>
<path d="M8.84701 29.278C5.31001 30.889 1.43801 35.852 0.0100098 41.672H6.33001L5.28501 46.956C9.17882 48.9462 13.4901 49.982 17.863 49.978C22.253 49.9853 26.581 48.9416 30.485 46.934L29.378 42.355L35.769 41.784C35.76 41.784 34.287 33.572 27.548 29.684C22.147 26.578 13.828 27.042 8.84701 29.278Z" fill="#3D5CFF"/>
<path d="M8.05195 35.682L4.29395 41.672L6.42695 41.663L8.05195 35.682Z" fill="#224BF4"/>
<path d="M29.3771 42.351L31.2771 42.19L27.0381 34.933L29.3771 42.351Z" fill="#224BF4"/>
<path d="M6.40895 41.762C6.3868 41.7555 6.36792 41.7408 6.35606 41.721C6.34421 41.7012 6.34024 41.6776 6.34495 41.655L8.13195 35.031C8.1385 35.0089 8.15313 34.99 8.17296 34.9781C8.19278 34.9663 8.21634 34.9623 8.23895 34.967C8.26073 34.974 8.27915 34.9888 8.29061 35.0085C8.30207 35.0283 8.30576 35.0517 8.30095 35.074L6.51595 41.699C6.51089 41.7165 6.50041 41.7319 6.48604 41.743C6.47167 41.7542 6.45413 41.7605 6.43595 41.761L6.40895 41.762Z" fill="#1F1F39"/>
<path d="M29.2071 42.35L26.9221 34.933C26.9183 34.9225 26.9167 34.9114 26.9174 34.9002C26.918 34.8891 26.9209 34.8782 26.9259 34.8683C26.9308 34.8583 26.9377 34.8494 26.9462 34.8421C26.9546 34.8349 26.9645 34.8294 26.9751 34.826C26.9856 34.8223 26.9967 34.8207 27.0078 34.8213C27.019 34.822 27.0298 34.8249 27.0398 34.8298C27.0498 34.8347 27.0587 34.8417 27.0659 34.8501C27.0732 34.8586 27.0787 34.8684 27.0821 34.879L29.3761 42.297C29.3798 42.3076 29.3813 42.3188 29.3806 42.3299C29.3799 42.3411 29.3769 42.352 29.3719 42.362C29.3669 42.372 29.3598 42.3809 29.3513 42.3881C29.3427 42.3953 29.3328 42.4007 29.3221 42.404C29.3041 42.404 29.2951 42.413 29.2861 42.413C29.2679 42.4122 29.2505 42.4056 29.2363 42.3943C29.2222 42.383 29.2119 42.3675 29.2071 42.35Z" fill="#1F1F39"/>
<path d="M11.607 14.715C11.607 14.715 9.51802 14.715 8.95602 13.805C8.80001 13.5579 8.74039 13.262 8.78852 12.9737C8.83666 12.6855 8.98918 12.425 9.21702 12.242C8.90869 11.8385 8.69954 11.3681 8.60643 10.8689C8.51333 10.3697 8.53888 9.85555 8.68102 9.36801C8.86985 8.91865 9.20636 8.54717 9.63493 8.31497C10.0635 8.08278 10.5585 8.00377 11.038 8.09101C11.038 8.09101 9.83302 5.95801 11.307 4.36001C13.107 2.39601 16.127 4.36001 16.127 4.36001C16.1851 4.00271 16.3688 3.67788 16.6451 3.44397C16.9214 3.21005 17.272 3.08241 17.634 3.08401C18.934 3.08401 18.934 3.87001 18.934 3.87001C19.3106 3.40344 19.8184 3.06042 20.3918 2.88521C20.9652 2.70999 21.578 2.71062 22.151 2.88701C25.159 3.77101 24.641 7.10901 24.641 7.10901C24.8176 7.07203 24.9999 7.07078 25.177 7.10533C25.3541 7.13988 25.5225 7.20953 25.6722 7.31018C25.822 7.41083 25.9501 7.54044 26.049 7.69138C26.1479 7.84231 26.2155 8.01151 26.248 8.18901C26.3668 8.5561 26.3395 8.95483 26.1719 9.30234C26.0043 9.64985 25.7092 9.91941 25.348 10.055C25.348 10.055 26.562 9.85501 26.865 10.841C26.9945 11.2532 26.9864 11.6964 26.8421 12.1036C26.6978 12.5109 26.4251 12.8602 26.065 13.099L25.36 16.536L11.899 17.089L11.607 14.715Z" fill="#1F1F39"/>
<path d="M9.27896 14.41C7.82396 15.08 7.67196 17.097 8.76996 18.365C9.86796 19.633 12.635 19.338 12.635 19.338L12.233 14.803C11.8073 14.5074 11.3172 14.3176 10.8035 14.2492C10.2898 14.1809 9.76713 14.236 9.27896 14.41Z" fill="#C43D28"/>
<path d="M26.72 14.411C28.175 15.08 28.327 17.098 27.229 18.365C26.131 19.632 23.364 19.338 23.364 19.338L24.105 14.741C24.4685 14.451 24.9048 14.2668 25.3661 14.2086C25.8275 14.1504 26.2959 14.2204 26.72 14.411Z" fill="#C43D28"/>
<path d="M24.1501 18.4C24.2169 17.8647 24.4238 17.3566 24.7501 16.927C25.1785 16.3334 25.7892 15.8962 26.4891 15.682C26.5032 15.6778 26.518 15.6766 26.5325 15.6784C26.5471 15.6802 26.5611 15.6851 26.5737 15.6926C26.5863 15.7001 26.5972 15.7102 26.6057 15.7221C26.6142 15.7341 26.6202 15.7476 26.6231 15.762C26.6273 15.7761 26.6285 15.7908 26.6267 15.8054C26.6249 15.82 26.6201 15.834 26.6126 15.8466C26.605 15.8592 26.595 15.8701 26.583 15.8786C26.5711 15.8871 26.5575 15.893 26.5431 15.896C25.8958 16.096 25.3295 16.498 24.9271 17.043C24.6254 17.4391 24.4315 17.9066 24.3641 18.4C24.3636 18.4282 24.3522 18.4551 24.3322 18.4751C24.3123 18.4951 24.2854 18.5065 24.2571 18.507C24.2289 18.5065 24.202 18.4951 24.1821 18.4751C24.1621 18.4551 24.1507 18.4282 24.1501 18.4V18.4Z" fill="#1F1F39"/>
<path d="M12.1261 18.401C12.0581 17.9083 11.8653 17.4412 11.5661 17.044C11.1655 16.4973 10.5974 16.0963 9.94805 15.902C9.92019 15.8938 9.89637 15.8756 9.88122 15.8508C9.86606 15.8261 9.86066 15.7965 9.86605 15.768C9.87484 15.7401 9.8935 15.7164 9.91855 15.7013C9.94359 15.6862 9.97328 15.6808 10.0021 15.686C10.7038 15.8955 11.3159 16.3324 11.7421 16.928C12.072 17.3555 12.2794 17.8647 12.3421 18.401C12.3421 18.4151 12.3393 18.429 12.3339 18.442C12.3285 18.4549 12.3206 18.4667 12.3107 18.4767C12.3008 18.4866 12.289 18.4945 12.276 18.4999C12.263 18.5052 12.2491 18.508 12.2351 18.508C12.221 18.508 12.2071 18.5052 12.1941 18.4999C12.1811 18.4945 12.1693 18.4866 12.1594 18.4767C12.1495 18.4667 12.1416 18.4549 12.1362 18.442C12.1308 18.429 12.1281 18.4151 12.1281 18.401H12.1261Z" fill="#1F1F39"/>
<path d="M14.9651 23.426L14.5991 28.496C14.5991 28.496 15.1081 29.612 17.7991 29.612C20.7181 29.612 21.5211 28.496 21.5211 28.496L21.3831 23.502C21.3831 23.502 23.2041 23.207 24.0831 19.923C24.6089 17.9056 24.757 15.8083 24.5201 13.737C24.5201 13.737 20.2201 14.406 18.7631 12.621C17.3061 10.836 15.8371 9.04601 13.7241 9.93901C11.6111 10.832 11.8761 16.589 12.4301 19.329C12.7789 20.9455 13.6742 22.3924 14.9651 23.426Z" fill="#DA5742"/>
<path d="M15.9111 16.589C15.7199 16.5712 15.5434 16.4789 15.4197 16.332C15.296 16.1851 15.2351 15.9954 15.2501 15.804C15.2348 15.6124 15.2956 15.4225 15.4193 15.2754C15.5431 15.1283 15.7197 15.0358 15.9111 15.018C16.1025 15.0358 16.2792 15.1283 16.4029 15.2754C16.5266 15.4225 16.5874 15.6124 16.5721 15.804C16.5871 15.9954 16.5262 16.1851 16.4025 16.332C16.2788 16.4789 16.1023 16.5712 15.9111 16.589Z" fill="#1F1F39"/>
<path d="M20.7231 16.589C20.5319 16.5712 20.3554 16.4789 20.2317 16.332C20.108 16.1851 20.0471 15.9954 20.0621 15.804C20.0468 15.6124 20.1076 15.4225 20.2314 15.2754C20.3551 15.1283 20.5317 15.0358 20.7231 15.018C20.9145 15.0358 21.0912 15.1283 21.2149 15.2754C21.3386 15.4225 21.3994 15.6124 21.3841 15.804C21.3991 15.9954 21.3382 16.1851 21.2145 16.332C21.0909 16.4789 20.9143 16.5712 20.7231 16.589Z" fill="#1F1F39"/>
<path d="M17.811 16.884C18.034 17.33 18.611 17.107 18.611 17.107C18.611 17.107 18.031 16.955 18.031 16.507C18.031 16.059 17.99 14.536 17.99 14.536C17.8005 15.3033 17.74 16.0968 17.811 16.884Z" fill="#1F1F39"/>
<path d="M14.759 27.126C14.804 27.113 19.588 25.256 20.49 24.408C20.49 23.89 20.508 23.508 20.508 23.508C19.5663 23.9113 18.5365 24.0649 17.518 23.954C16.6392 23.9578 15.7693 23.7779 14.964 23.426C14.973 23.881 14.804 26.943 14.759 27.126Z" fill="#C43D28"/>
<path d="M21.9271 18.526C21.1431 18.526 20.5081 18.127 20.5081 17.634C20.5081 17.141 21.1431 16.741 21.9271 16.741C22.7111 16.741 23.3471 17.141 23.3471 17.634C23.3471 18.127 22.7081 18.526 21.9271 18.526Z" fill="#C43D28"/>
<path d="M14.42 18.526C13.636 18.526 13.001 18.127 13.001 17.634C13.001 17.141 13.636 16.741 14.42 16.741C15.204 16.741 15.84 17.141 15.84 17.634C15.84 18.127 15.201 18.526 14.42 18.526Z" fill="#C43D28"/>
<path d="M18.3019 18.732C18.6849 18.5711 19.0453 18.361 19.3739 18.107C19.3739 18.107 19.5529 18.018 19.6419 18.107C19.5739 18.3721 19.4515 18.6201 19.2825 18.8353C19.1134 19.0505 18.9014 19.2282 18.6599 19.357C18.4184 19.437 18.1575 19.4366 17.9161 19.3561C17.6748 19.2755 17.466 19.119 17.3209 18.91C17.0529 18.553 17.4099 18.642 17.4099 18.642C17.6966 18.7391 18.0016 18.7699 18.3019 18.732Z" fill="white"/>
<path d="M14.911 21.587C16.25 21.944 16 22.569 16.58 22.301C17.16 22.033 17.33 21.501 18.508 21.676C19.686 21.851 19.427 22.476 20.177 22.39C21.1467 22.0957 22.0336 21.5774 22.766 20.877C23.355 20.337 24.185 19.445 24.185 19.445C24.185 19.445 23.649 23.194 20.668 24.087C18.427 24.756 15.25 24.444 13.83 22.387C13.0801 21.4516 12.5633 20.3514 12.322 19.177C12.322 19.177 13.572 21.23 14.911 21.587Z" fill="#1F1F39"/>
<path d="M16.276 21.142C16.2631 21.1348 16.2521 21.1248 16.2435 21.1127C16.235 21.1007 16.2292 21.0869 16.2266 21.0724C16.2241 21.0578 16.2247 21.0429 16.2286 21.0287C16.2325 21.0144 16.2394 21.0012 16.249 20.99L16.606 20.454C16.6132 20.4411 16.6232 20.4301 16.6353 20.4215C16.6473 20.413 16.6611 20.4072 16.6756 20.4046C16.6902 20.4021 16.7051 20.4027 16.7193 20.4066C16.7336 20.4105 16.7468 20.4174 16.758 20.427C16.7709 20.4342 16.782 20.4442 16.7905 20.4563C16.799 20.4683 16.8048 20.4821 16.8074 20.4966C16.8099 20.5112 16.8093 20.5261 16.8054 20.5403C16.8015 20.5546 16.7946 20.5678 16.785 20.579L16.428 21.115C16.4177 21.1288 16.4042 21.14 16.3887 21.1476C16.3733 21.1553 16.3562 21.1592 16.339 21.159C16.3171 21.1576 16.2957 21.1518 16.276 21.142Z" fill="#1F1F39"/>
<path d="M14.376 20.767C14.3602 20.743 14.3541 20.7139 14.3591 20.6856C14.3642 20.6573 14.3799 20.632 14.403 20.615L14.938 20.258C14.962 20.2421 14.9911 20.2361 15.0194 20.2411C15.0477 20.2462 15.073 20.2619 15.09 20.285C15.1065 20.3091 15.1129 20.3387 15.1078 20.3675C15.1028 20.3963 15.0867 20.4219 15.063 20.439L14.528 20.794C14.5088 20.805 14.4871 20.8108 14.465 20.811C14.4478 20.8112 14.4307 20.8073 14.4153 20.7996C14.3998 20.792 14.3864 20.7808 14.376 20.767Z" fill="#1F1F39"/>
<path d="M18.196 21.23V20.784C18.1966 20.7558 18.208 20.7289 18.228 20.7089C18.2479 20.689 18.2748 20.6775 18.303 20.677C18.3308 20.6789 18.3569 20.6907 18.3766 20.7104C18.3963 20.7301 18.4082 20.7562 18.41 20.784V21.23C18.4112 21.2444 18.4093 21.2589 18.4044 21.2725C18.3994 21.286 18.3916 21.2984 18.3814 21.3087C18.3713 21.3189 18.359 21.3269 18.3455 21.3319C18.3319 21.337 18.3175 21.3391 18.303 21.338C18.2747 21.3375 18.2476 21.3259 18.2276 21.3057C18.2076 21.2856 18.1963 21.2584 18.196 21.23V21.23Z" fill="#1F1F39"/>
<path d="M19.893 21L19.714 20.552C19.7085 20.5385 19.7058 20.524 19.7061 20.5095C19.7063 20.4949 19.7094 20.4805 19.7153 20.4672C19.7212 20.4539 19.7297 20.4419 19.7403 20.4319C19.7509 20.4219 19.7634 20.4141 19.777 20.409C19.7905 20.4037 19.8048 20.4011 19.8193 20.4014C19.8337 20.4017 19.848 20.4049 19.8612 20.4108C19.8744 20.4166 19.8863 20.4251 19.8963 20.4356C19.9062 20.4461 19.9139 20.4585 19.919 20.472L20.098 20.918C20.1035 20.9315 20.1062 20.946 20.1059 20.9605C20.1057 20.9751 20.1026 20.9895 20.0967 21.0028C20.0908 21.0161 20.0823 21.0282 20.0717 21.0382C20.0611 21.0481 20.0487 21.0559 20.035 21.061C20.027 21.07 20.018 21.07 20 21.07C19.9773 21.0701 19.955 21.0635 19.936 21.0511C19.917 21.0386 19.902 21.0209 19.893 21Z" fill="#1F1F39"/>
<path d="M21.91 20.874L21.285 20.517C21.2592 20.5025 21.2401 20.4785 21.2317 20.4501C21.2233 20.4217 21.2263 20.3912 21.24 20.365C21.2545 20.3392 21.2785 20.3202 21.3069 20.3118C21.3352 20.3034 21.3658 20.3063 21.392 20.32L22.017 20.677C22.0389 20.6894 22.0561 20.7087 22.066 20.7318C22.0759 20.7549 22.0779 20.7806 22.0718 20.805C22.0657 20.8294 22.0517 20.8512 22.032 20.8669C22.0124 20.8826 21.9881 20.8914 21.963 20.892C21.9442 20.89 21.9261 20.8839 21.91 20.874Z" fill="#1F1F39"/>
<g opacity="0.592">
<g opacity="0.592">
<path opacity="0.592" d="M12.9878 33.889C13.0737 33.9338 13.1678 33.9607 13.2643 33.9683C13.3609 33.9759 13.458 33.9639 13.5498 33.933C13.7818 33.871 14.0228 33.754 14.2548 33.879C14.3538 33.9331 14.432 34.0186 14.4772 34.1219C14.5224 34.2252 14.5322 34.3406 14.5048 34.45C14.4868 34.53 14.6118 34.566 14.6298 34.486C14.6555 34.3853 14.656 34.2799 14.6314 34.1789C14.6068 34.078 14.5578 33.9846 14.4887 33.907C14.4196 33.8294 14.3325 33.77 14.235 33.7339C14.1376 33.6978 14.0328 33.6862 13.9298 33.7C13.7016 33.7701 13.4672 33.818 13.2298 33.843C12.9788 33.826 12.9158 33.594 12.8718 33.371C12.8701 33.3627 12.8667 33.3548 12.8618 33.3477C12.857 33.3407 12.8508 33.3347 12.8437 33.3301C12.8365 33.3254 12.8285 33.3222 12.8202 33.3207C12.8118 33.3191 12.8032 33.3192 12.7948 33.321C12.7865 33.3228 12.7786 33.3262 12.7716 33.331C12.7645 33.3358 12.7585 33.342 12.7539 33.3492C12.7492 33.3563 12.746 33.3643 12.7445 33.3727C12.7429 33.3811 12.7431 33.3897 12.7448 33.398C12.76 33.5867 12.847 33.7625 12.9878 33.889Z" fill="#BFE3C6"/>
<path opacity="0.592" d="M11.7298 38.325C11.8341 38.523 11.9959 38.6847 12.1938 38.789C12.3988 38.914 12.6138 39.075 12.5598 39.342C12.4968 39.631 12.2208 39.789 11.9878 39.922C11.9741 39.932 11.9646 39.9468 11.9612 39.9635C11.9579 39.9802 11.9609 39.9975 11.9697 40.0121C11.9785 40.0266 11.9924 40.0374 12.0087 40.0422C12.025 40.047 12.0426 40.0455 12.0578 40.038C12.3047 39.9242 12.5104 39.7371 12.6468 39.502C12.6949 39.4023 12.7121 39.2905 12.6963 39.1809C12.6804 39.0713 12.6322 38.969 12.5578 38.887C12.3988 38.717 12.1668 38.637 12.0058 38.476C11.9067 38.376 11.8401 38.2485 11.8146 38.1101C11.7891 37.9716 11.8059 37.8287 11.8628 37.7C11.8808 37.631 11.7468 37.602 11.7208 37.673C11.678 37.7766 11.6567 37.8878 11.6583 37.9999C11.6598 38.112 11.6842 38.2226 11.7298 38.325Z" fill="#BFE3C6"/>
<path opacity="0.592" d="M4.74889 35.995C4.73105 35.9126 4.73861 35.8267 4.77057 35.7487C4.80252 35.6707 4.85738 35.6042 4.92789 35.558C5.26689 35.344 5.60589 35.658 5.93689 35.683C6.23689 35.71 6.43689 35.442 6.51689 35.174C6.554 35.0407 6.56286 34.9012 6.54288 34.7643C6.52291 34.6273 6.47454 34.4961 6.40089 34.379C6.39072 34.3659 6.37611 34.357 6.35982 34.3539C6.34352 34.3508 6.32665 34.3538 6.3124 34.3622C6.29814 34.3707 6.28747 34.3841 6.28241 34.3999C6.27734 34.4157 6.27822 34.4328 6.28489 34.448C6.36866 34.5779 6.41471 34.7285 6.41788 34.883C6.42106 35.0375 6.38125 35.1898 6.30289 35.323C6.26596 35.4073 6.19868 35.4747 6.1144 35.5118C6.03012 35.5488 5.93499 35.5528 5.84789 35.523C5.69049 35.46 5.52955 35.4063 5.36589 35.362C5.23401 35.3256 5.09379 35.334 4.96714 35.3857C4.8405 35.4374 4.73456 35.5297 4.66589 35.648C4.61541 35.7847 4.59994 35.9318 4.62089 36.076C4.62935 36.254 4.65616 36.4306 4.70089 36.603C4.71889 36.683 4.84389 36.648 4.82589 36.567C4.77838 36.3799 4.75255 36.188 4.74889 35.995Z" fill="#BFE3C6"/>
<path opacity="0.592" d="M9.26585 45.135C9.30256 45.1219 9.34183 45.1175 9.38054 45.1222C9.41924 45.1269 9.45633 45.1405 9.48885 45.162C9.61773 45.2477 9.73737 45.3466 9.84585 45.457C10.0777 45.6514 10.3587 45.7781 10.6578 45.823C10.7876 45.8434 10.9203 45.8341 11.0459 45.7958C11.1716 45.7575 11.2869 45.6911 11.3832 45.6018C11.4794 45.5124 11.5542 45.4024 11.6018 45.28C11.6493 45.1576 11.6685 45.0259 11.6578 44.895C11.6408 44.814 11.5158 44.849 11.5338 44.93C11.5477 45.0858 11.5084 45.2417 11.4223 45.3722C11.3362 45.5028 11.2085 45.6004 11.0598 45.649C10.9022 45.6942 10.7363 45.7036 10.5746 45.6764C10.4128 45.6492 10.2591 45.5862 10.1248 45.492C9.98349 45.4009 9.85121 45.2964 9.72985 45.18C9.63759 45.0856 9.51976 45.0203 9.39085 44.992C9.17685 44.966 8.94485 45.18 9.05185 45.394C9.08785 45.466 9.20385 45.403 9.16785 45.323C9.13185 45.243 9.20385 45.171 9.26585 45.135Z" fill="#BFE3C6"/>
<path opacity="0.592" d="M18.344 43.386C18.3522 43.5113 18.3906 43.6328 18.4559 43.74C18.5212 43.8473 18.6115 43.9372 18.719 44.002C18.942 44.172 19.264 44.323 19.319 44.627C19.373 44.966 18.98 45.038 18.73 45.011C18.641 45.002 18.65 45.136 18.73 45.145C18.8509 45.1703 18.9763 45.162 19.0928 45.1211C19.2093 45.0803 19.3124 45.0083 19.391 44.913C19.4485 44.7956 19.4639 44.6619 19.4346 44.5345C19.4053 44.407 19.3331 44.2935 19.23 44.213C19.025 44.008 18.73 43.913 18.569 43.66C18.5005 43.507 18.4832 43.3359 18.5198 43.1723C18.5564 43.0087 18.6448 42.8613 18.772 42.752C18.826 42.699 18.728 42.601 18.674 42.663C18.4788 42.8552 18.3613 43.1126 18.344 43.386V43.386Z" fill="#BFE3C6"/>
<path opacity="0.592" d="M25.824 44.957C25.7602 45.0712 25.729 45.2006 25.7337 45.3313C25.7385 45.462 25.779 45.5888 25.851 45.698C25.9401 45.8274 26.0035 45.9727 26.038 46.126C26.0553 46.2758 26.0137 46.4264 25.922 46.546C25.8739 46.6058 25.8138 46.6548 25.7456 46.6898C25.6774 46.7248 25.6026 46.7451 25.526 46.7494C25.4494 46.7536 25.3728 46.7417 25.3011 46.7144C25.2295 46.6871 25.1643 46.6451 25.11 46.591C25.0967 46.5778 25.0787 46.5703 25.06 46.5703C25.0412 46.5703 25.0232 46.5778 25.01 46.591C24.9967 46.6043 24.9893 46.6223 24.9893 46.641C24.9893 46.6598 24.9967 46.6778 25.01 46.691C25.1113 46.7853 25.2378 46.8481 25.3741 46.8719C25.5104 46.8957 25.6507 46.8794 25.778 46.825C25.9008 46.7652 26.0035 46.6708 26.0734 46.5533C26.1432 46.4359 26.1771 46.3005 26.171 46.164C26.155 45.85 25.86 45.626 25.86 45.305C25.8627 45.1566 25.921 45.0146 26.0234 44.9072C26.1258 44.7998 26.2649 44.7348 26.413 44.725C26.4307 44.725 26.4478 44.718 26.4603 44.7054C26.4729 44.6928 26.48 44.6758 26.48 44.658C26.48 44.6402 26.4729 44.6232 26.4603 44.6106C26.4478 44.5981 26.4307 44.591 26.413 44.591C26.2917 44.5968 26.174 44.6334 26.0709 44.6975C25.9678 44.7615 25.8828 44.8509 25.824 44.957Z" fill="#BFE3C6"/>
<path opacity="0.592" d="M21.8879 32.656C22.0023 32.894 22.1596 33.109 22.3519 33.29C22.4589 33.406 22.5519 33.576 22.3789 33.683C22.2288 33.7646 22.0578 33.7994 21.8879 33.783C21.8701 33.783 21.8531 33.7901 21.8405 33.8026C21.8279 33.8152 21.8209 33.8322 21.8209 33.85C21.8209 33.8678 21.8279 33.8848 21.8405 33.8974C21.8531 33.91 21.8701 33.917 21.8879 33.917C22.1109 33.926 22.5039 33.881 22.5929 33.64C22.6819 33.399 22.4499 33.201 22.3069 33.049C22.0873 32.8396 21.9591 32.5522 21.9499 32.249C21.9498 32.1156 21.9908 31.9855 22.0674 31.8763C22.144 31.7672 22.2524 31.6843 22.3779 31.639C22.3869 31.6367 22.3954 31.6327 22.4029 31.6271C22.4104 31.6215 22.4168 31.6145 22.4215 31.6064C22.4263 31.5984 22.4295 31.5895 22.4308 31.5802C22.4322 31.571 22.4317 31.5616 22.4294 31.5525C22.4271 31.5434 22.423 31.5349 22.4174 31.5274C22.4118 31.5199 22.4048 31.5136 22.3968 31.5088C22.3888 31.5041 22.3799 31.5009 22.3706 31.4996C22.3614 31.4982 22.3519 31.4987 22.3429 31.501C22.2348 31.5441 22.1368 31.6088 22.0547 31.6912C21.9726 31.7736 21.9083 31.8719 21.8657 31.9802C21.8231 32.0884 21.803 32.2041 21.8069 32.3204C21.8107 32.4366 21.8382 32.5508 21.8879 32.656Z" fill="#BFE3C6"/>
<path opacity="0.592" d="M21.7808 37.86C22.0488 38.003 22.1018 38.333 22.1918 38.592C22.2248 38.7196 22.2873 38.8377 22.3741 38.9368C22.4609 39.036 22.5697 39.1134 22.6918 39.163C22.9544 39.2567 23.2412 39.2567 23.5038 39.163C23.6538 39.0947 23.7886 38.9972 23.9004 38.8762C24.0122 38.7551 24.0987 38.6129 24.1548 38.458C24.1908 38.378 24.0548 38.342 24.0298 38.422C23.9754 38.5692 23.8897 38.7029 23.7787 38.8139C23.6677 38.9249 23.534 39.0106 23.3868 39.065C23.2415 39.1084 23.0879 39.1164 22.9388 39.0884C22.7897 39.0604 22.6495 38.9972 22.5298 38.904C22.3158 38.704 22.2978 38.386 22.1908 38.127C22.1492 38.0161 22.0824 37.9165 21.9956 37.8359C21.9088 37.7554 21.8045 37.6962 21.6908 37.663C21.56 37.6308 21.4231 37.6328 21.2933 37.6689C21.1635 37.705 21.0452 37.7739 20.9498 37.869C20.8788 37.949 20.9678 38.039 21.0298 37.976C21.1247 37.8765 21.2497 37.8112 21.3856 37.7903C21.5214 37.7693 21.6604 37.7938 21.7808 37.86Z" fill="#BFE3C6"/>
<path opacity="0.592" d="M30.002 35.335C29.9281 35.5615 29.9303 35.8058 30.008 36.031C30.053 36.263 30.062 36.531 29.829 36.665C29.7267 36.7166 29.6089 36.7288 29.4982 36.6991C29.3875 36.6694 29.2917 36.5999 29.229 36.504C29.184 36.433 29.068 36.504 29.113 36.575C29.1707 36.6664 29.2514 36.7409 29.3471 36.7911C29.4428 36.8413 29.55 36.8654 29.658 36.861C29.7649 36.8523 29.867 36.8133 29.9524 36.7484C30.0379 36.6836 30.1029 36.5956 30.14 36.495C30.1816 36.2416 30.1648 35.982 30.091 35.736C30.0623 35.6048 30.0845 35.4676 30.153 35.352C30.1819 35.3045 30.2253 35.2676 30.2768 35.2468C30.3283 35.2259 30.3852 35.2221 30.439 35.236C30.519 35.245 30.555 35.12 30.475 35.093C30.3803 35.0719 30.2812 35.0845 30.1948 35.1287C30.1084 35.1728 30.0402 35.2458 30.002 35.335Z" fill="#BFE3C6"/>
</g>
<path opacity="0.592" d="M35.4338 40.5271L35.443 40.6156L28.9352 41.2935L28.926 41.205L35.4338 40.5271Z" fill="#BFE3C6"/>
<path opacity="0.592" d="M6.7565 40.1665L6.75841 40.2555L0.3149 40.394L0.312988 40.305L6.7565 40.1665Z" fill="#BFE3C6"/>
</g>
</svg>
