<svg width="14" height="14" viewBox="0 0 14 14" fill="none" xmlns="http://www.w3.org/2000/svg">
<path d="M13.2353 13.9063C13.1474 13.9059 13.0605 13.888 12.9797 13.8536C12.8988 13.8193 12.8256 13.7692 12.7643 13.7063L10.3153 11.2573C9.05417 12.2771 7.44984 12.7743 5.83303 12.6462C4.21621 12.5182 2.71014 11.7747 1.62528 10.5691C0.540426 9.36342 -0.0405212 7.78751 0.00219959 6.16619C0.0449203 4.54487 0.708053 3.00174 1.85489 1.85489C3.00174 0.708053 4.54487 0.0449203 6.16619 0.00219959C7.78751 -0.0405212 9.36342 0.540426 10.5691 1.62528C11.7747 2.71014 12.5182 4.21621 12.6462 5.83303C12.7743 7.44984 12.2771 9.05417 11.2573 10.3153L13.7063 12.7643C13.7994 12.8574 13.8629 12.9761 13.8886 13.1053C13.9143 13.2345 13.9011 13.3684 13.8507 13.4902C13.8003 13.6119 13.7149 13.7159 13.6054 13.7891C13.4958 13.8623 13.367 13.9013 13.2353 13.9013V13.9063ZM6.33227 1.33927C5.34336 1.33927 4.37667 1.63252 3.55442 2.18192C2.73217 2.73133 2.09131 3.51222 1.71287 4.42585C1.33444 5.33948 1.23542 6.34482 1.42834 7.31472C1.62127 8.28463 2.09747 9.17554 2.79674 9.87481C3.496 10.5741 4.38691 11.0503 5.35682 11.2432C6.32672 11.4361 7.33206 11.3371 8.24569 10.9587C9.15932 10.5802 9.94021 9.93937 10.4896 9.11712C11.039 8.29488 11.3323 7.32818 11.3323 6.33927C11.3307 5.01368 10.8034 3.74283 9.86605 2.80549C8.92871 1.86815 7.65787 1.34086 6.33227 1.33927Z" fill="#B8B8D2"/>
</svg>
